<?xml version="1.0" encoding="utf-8"?>
<!-- Generator: Adobe Illustrator 25.4.1, SVG Export Plug-In . SVG Version: 6.00 Build 0)  -->
<svg version="1.1" xmlns="http://www.w3.org/2000/svg" xmlns:xlink="http://www.w3.org/1999/xlink" x="0px" y="0px"
	 viewBox="0 0 500 500" style="enable-background:new 0 0 500 500;" xml:space="preserve">
<style type="text/css">
	.st0{fill:#F5F5F5;}
	.st1{fill:#E0E0E0;}
	.st2{fill:#37474F;}
	.st3{fill:#FFFFFF;}
	.st4{fill:#455A64;}
	.st5{opacity:0.3;fill:#27DEBF;}
	.st6{opacity:0.5;fill:#FFFFFF;}
	.st7{opacity:0.3;}
	.st8{fill:#27DEBF;}
	.st9{opacity:0.5;}
	.st10{fill:#FAFAFA;}
	.st11{opacity:0.5;fill:#27DEBF;}
	.st12{fill:#B16668;}
	.st13{fill:#263238;}
	.st14{opacity:0.4;}
	.st15{opacity:0.2;}
	.st16{fill:#9A4A4D;}
	.st17{opacity:0.75;fill:#FFFFFF;}
	.st18{opacity:0.1;fill:#27DEBF;}
	.st19{opacity:0.1;}
</style>
<g id="Floor">
	<ellipse id="Floor_4_" class="st0" cx="249.53" cy="345.84" rx="231.15" ry="133.46"/>
</g>
<g id="Shadows">
	<path id="Shadow_24_" class="st1" d="M428.59,369.86l-60.66-35.02c-1.2-0.69-1.19-1.81,0-2.5l39.02-22.49
		c1.2-0.69,3.14-0.69,4.33,0l60.66,35.02c1.2,0.69,1.19,1.81,0,2.5l-39.02,22.49C431.72,370.56,429.78,370.55,428.59,369.86z"/>
	<ellipse id="Shadow_16_" class="st1" cx="165.86" cy="377.6" rx="101.93" ry="58.85"/>
	<ellipse id="Shadow_7_" class="st1" cx="262.08" cy="365.69" rx="66.39" ry="38.33"/>
</g>
<g id="Plants">
	<g id="Plants_1_">
		<g id="XMLID_574_">
			<g id="XMLID_579_">
				<path id="XMLID_580_" class="st2" d="M64.51,327.72l0.82-13.01c0,0-0.77-16.61-17.23-31.94c-9.99-9.31-18.27-4.29-20.34,0.78
					c-2.06,5.07-0.35,12.76,9.37,19.95c15.22,11.26,28.01,29.07,29.66,41.69L64.51,327.72z"/>
			</g>
			<g id="XMLID_575_">
				<path id="XMLID_576_" class="st3" d="M64.03,324.05c-0.27,0.04-0.54-0.13-0.62-0.4c-7.49-24.8-29.05-39.68-29.27-39.83
					c-0.26-0.18-0.33-0.54-0.15-0.8c0.18-0.26,0.54-0.33,0.8-0.15c0.22,0.15,22.11,15.25,29.72,40.45c0.09,0.3-0.08,0.63-0.38,0.72
					C64.1,324.04,64.06,324.04,64.03,324.05z"/>
			</g>
		</g>
		<g id="XMLID_548_">
			<g id="XMLID_572_">
				<path id="XMLID_573_" class="st4" d="M65.17,328.15c-0.15-1.43-0.58-2.82-1.51-3.89c-1.6-1.85-4.4-2.45-5.75-4.5
					c-0.63-0.96-0.86-2.13-1.28-3.2c-0.94-2.38-2.91-4.29-5.23-5.37c-2.32-1.08-4.97-1.37-7.51-1.04c-1.93,0.25-3.81,0.83-5.73,1.1
					c-6.33,0.9-12.19-4.9-18.48-0.98c-3.78,2.36-3.52,6.48-1.43,9.93c1.07,1.77,2.51,3.3,4.08,4.63c1.7,1.43,3.49,2.3,3.66,4.81
					c0.13,1.82-0.44,3.63-0.43,5.46c0.03,3,1.69,5.83,4.01,7.74c2.32,1.9,5.23,2.96,8.18,3.52c2.19,0.41,4.71,0.75,5.92,2.62
					c0.62,0.96,0.75,2.14,1.03,3.25c0.93,3.64,3.73,6.64,7.1,8.31c3.37,1.66,7.26,2.07,10.99,1.68c3.2-0.34,6.43-1.29,8.93-3.33
					c4.28-3.49,1.82-10.1-0.97-13.79c-1.22-1.62-2.74-3.01-3.88-4.69c-2.26-3.35-1.89-6.25-1.67-10.08
					C65.25,329.62,65.24,328.88,65.17,328.15z"/>
			</g>
			<g id="XMLID_570_">
				<path id="XMLID_571_" class="st3" d="M68.51,352.79c-0.19,0.04-0.4-0.05-0.5-0.24c-15.31-27.53-39.87-35.26-40.12-35.34
					c-0.25-0.08-0.39-0.34-0.32-0.59c0.08-0.25,0.34-0.39,0.59-0.32c0.25,0.08,25.17,7.9,40.67,35.78c0.13,0.23,0.05,0.52-0.18,0.64
					C68.61,352.77,68.56,352.79,68.51,352.79z"/>
			</g>
			<g id="XMLID_568_">
				<path id="XMLID_569_" class="st3" d="M53.91,333.84c-0.03,0.01-0.07,0.01-0.11,0.01c-6.73-0.28-16.91,2.42-17.02,2.45
					c-0.26,0.07-0.51-0.08-0.58-0.33c-0.07-0.25,0.08-0.51,0.34-0.58c0.42-0.11,10.43-2.77,17.3-2.48c0.26,0.01,0.47,0.23,0.45,0.49
					C54.29,333.62,54.12,333.8,53.91,333.84z"/>
			</g>
			<g id="XMLID_549_">
				<path id="XMLID_562_" class="st3" d="M49.03,329.27c-0.01,0-0.02,0-0.03,0c-0.26,0.03-0.5-0.15-0.53-0.41
					c-0.67-5.23,0.22-10.01,0.26-10.22c0.05-0.26,0.3-0.43,0.56-0.38c0.26,0.05,0.43,0.3,0.38,0.56c-0.01,0.05-0.9,4.84-0.25,9.92
					C49.45,328.99,49.28,329.22,49.03,329.27z"/>
			</g>
		</g>
	</g>
</g>
<g id="Screen_1_">
	<g id="Screen">
		<path id="XMLID_542_" class="st5" d="M460.24,135.55L275.33,28.8c-2.78-1.61-5.04-0.3-5.04,2.91v146.44
			c0,3.21,2.26,7.12,5.04,8.73l184.91,106.74c2.78,1.61,5.04,0.3,5.04-2.91l0-146.44C465.28,141.06,463.02,137.16,460.24,135.55z"/>
		<path id="XMLID_541_" class="st6" d="M460.24,135.55L275.33,28.8c-2.78-1.61-5.04-0.3-5.04,2.91v146.44
			c0,3.21,2.26,7.12,5.04,8.73l184.91,106.74c2.78,1.61,5.04,0.3,5.04-2.91l0-146.44C465.28,141.06,463.02,137.16,460.24,135.55z"/>
		<path class="st5" d="M461.22,266.06V247.3l-12.19-7.04l0,14.07l-4.06-2.35v-23.45l-8.12-4.69v9.38l-4.06-2.35v18.76l-8.12-4.69
			v-14.07l-4.06-2.35l0-4.69l-4.06-2.34v-4.69l-4.06-2.35v4.69l-4.06-2.35v4.69l-4.06-2.35l0,4.69l-8.12-4.69v-14.07l-12.19-7.04
			v23.45l-4.06-2.35l0-14.07l-8.12-4.69v14.07l-4.06-2.35v-4.69l-8.12-4.69v-9.38l-8.12-4.69v4.69l-4.06-2.37v14.09l-4.06-2.35
			v-18.76l-4.06-2.35l0-4.69l-4.06-2.35v-4.69l-4.06-2.35v4.69l-4.06-2.35v4.69l-4.06-2.35v23.45l-4.06-2.35v-9.38L307,176.94v4.77
			l-8.26-4.77l0-9.38l-4.06-2.35l0-4.69l-4.06-2.35l0-4.69l-4.06-2.34l0,4.69l-4.06-2.34l0,4.69l-4.06-2.35l0,9.38l-8.13-4.7v17.63
			c0,3.21,2.26,7.12,5.04,8.73l184.91,106.74c2.78,1.61,5.04,0.3,5.04-2.91v-22.31L461.22,266.06z"/>
		<g id="XMLID_539_" class="st7">
			<path class="st8" d="M273.08,29.12c0.52,0,1.12,0.19,1.75,0.55l184.91,106.74c2.46,1.42,4.54,5.02,4.54,7.86l0,146.44
				c0,0.78-0.17,2.6-1.79,2.6c-0.52,0-1.12-0.19-1.75-0.55L275.83,186.02c-2.46-1.42-4.54-5.02-4.54-7.86V31.71
				C271.29,30.93,271.47,29.12,273.08,29.12 M273.08,28.12c-1.65,0-2.79,1.32-2.79,3.6v146.44c0,3.21,2.26,7.12,5.04,8.73
				l184.91,106.74c0.81,0.47,1.57,0.69,2.25,0.69c1.65,0,2.79-1.32,2.79-3.6l0-146.44c0-3.21-2.26-7.12-5.04-8.73L275.33,28.8
				C274.52,28.34,273.76,28.12,273.08,28.12L273.08,28.12z"/>
		</g>
		<g>
			<g>
				<path class="st6" d="M323.64,104.55l80.17,46.29c4.78,2.76,8.66,9.48,8.66,15v22.21c0,5.52-3.88,7.76-8.66,5l-80.17-46.29
					c-4.78-2.76-8.66-9.48-8.66-15l0-22.21C314.98,104.03,318.86,101.79,323.64,104.55z"/>
				<g class="st9">
					<path class="st8" d="M407.68,194.74c-1.27,0-2.67-0.42-4.12-1.25l-80.17-46.29c-4.91-2.84-8.91-9.76-8.91-15.43v-22.21
						c0-2.86,0.99-5,2.79-6.04c1.8-1.04,4.15-0.82,6.62,0.61l80.17,46.29c4.91,2.84,8.91,9.76,8.91,15.43v22.21
						c0,2.86-0.99,5-2.79,6.04C409.44,194.52,408.59,194.74,407.68,194.74z M319.78,103.86c-0.74,0-1.42,0.17-2.01,0.51
						c-1.47,0.85-2.29,2.69-2.29,5.17v22.21c0,5.35,3.77,11.89,8.41,14.57l80.17,46.29c2.15,1.24,4.15,1.46,5.62,0.61
						c1.47-0.85,2.29-2.69,2.29-5.17v-22.21c0-5.35-3.77-11.89-8.41-14.57l-80.17-46.29C322.11,104.24,320.88,103.86,319.78,103.86z
						"/>
				</g>
				<g class="st9">
					<path class="st8" d="M336.41,122.75c0.8,0.46,1.53,1.06,2.2,1.81c0.67,0.74,1.25,1.53,1.73,2.37c0.49,0.84,0.87,1.68,1.14,2.51
						c0.27,0.83,0.42,1.56,0.43,2.18c0,0.17-0.04,0.3-0.12,0.38c-0.08,0.08-0.17,0.09-0.27,0.03l-2.46-1.42
						c-0.17-0.1-0.32-0.22-0.42-0.36c-0.11-0.14-0.22-0.32-0.33-0.54c-0.04-0.08-0.1-0.21-0.18-0.39c-0.08-0.18-0.2-0.39-0.35-0.62
						c-0.15-0.23-0.34-0.46-0.56-0.7c-0.22-0.24-0.5-0.45-0.82-0.63c-0.24-0.14-0.47-0.24-0.69-0.32c-0.22-0.08-0.41-0.11-0.58-0.1
						c-0.17,0.01-0.31,0.08-0.41,0.21c-0.11,0.13-0.16,0.34-0.16,0.63c0,0.29,0.06,0.56,0.18,0.82c0.12,0.26,0.32,0.55,0.6,0.88
						c0.28,0.33,0.65,0.7,1.12,1.12c0.46,0.42,1.04,0.94,1.73,1.54c0.69,0.61,1.29,1.23,1.8,1.85c0.51,0.62,0.94,1.28,1.29,1.97
						c0.34,0.69,0.6,1.42,0.77,2.18c0.17,0.76,0.25,1.59,0.25,2.5c0,0.98-0.14,1.77-0.43,2.38c-0.29,0.6-0.69,1.03-1.21,1.28
						c-0.52,0.25-1.13,0.31-1.84,0.19c-0.71-0.12-1.48-0.42-2.32-0.9c-0.85-0.49-1.63-1.11-2.33-1.86c-0.7-0.75-1.3-1.56-1.81-2.42
						c-0.51-0.86-0.9-1.73-1.19-2.61c-0.29-0.88-0.44-1.69-0.45-2.43c0-0.17,0.04-0.3,0.12-0.38c0.08-0.08,0.17-0.09,0.27-0.03
						l2.46,1.42c0.17,0.1,0.31,0.21,0.41,0.34c0.1,0.12,0.2,0.28,0.3,0.48c0.05,0.11,0.12,0.27,0.22,0.5
						c0.1,0.23,0.23,0.49,0.4,0.77c0.17,0.28,0.38,0.56,0.64,0.84c0.26,0.28,0.57,0.53,0.95,0.75c0.66,0.38,1.21,0.59,1.66,0.63
						c0.44,0.04,0.67-0.24,0.67-0.81c0-0.29-0.08-0.58-0.24-0.86c-0.16-0.29-0.41-0.61-0.73-0.96c-0.32-0.35-0.74-0.75-1.25-1.2
						c-0.51-0.45-1.1-0.98-1.79-1.61c-1.29-1.17-2.23-2.42-2.82-3.75c-0.59-1.33-0.89-2.83-0.89-4.48c0-0.83,0.12-1.55,0.37-2.16
						c0.24-0.61,0.6-1.07,1.06-1.38c0.46-0.31,1.02-0.44,1.68-0.4C334.86,122.02,335.6,122.28,336.41,122.75z"/>
					<path class="st8" d="M355.09,133.82c0.14,0.08,0.26,0.23,0.36,0.44c0.1,0.21,0.15,0.42,0.15,0.64v3.06
						c0,0.21-0.05,0.37-0.15,0.46c-0.1,0.1-0.22,0.1-0.36,0.03l-3.3-1.91v14.81c0,0.21-0.05,0.37-0.15,0.46
						c-0.1,0.1-0.22,0.1-0.36,0.03l-2.46-1.42c-0.14-0.08-0.26-0.22-0.36-0.44c-0.1-0.21-0.15-0.42-0.15-0.64v-14.81l-3.3-1.91
						c-0.14-0.08-0.26-0.22-0.36-0.44c-0.1-0.21-0.15-0.42-0.15-0.64v-3.06c0-0.21,0.05-0.37,0.15-0.46c0.1-0.1,0.22-0.11,0.36-0.03
						L355.09,133.82z"/>
					<path class="st8" d="M364.32,139.14c0.25,0.14,0.44,0.36,0.57,0.65c0.13,0.29,0.22,0.55,0.27,0.79l4.09,20.55
						c0.05,0.22,0.07,0.38,0.07,0.48c0,0.17-0.04,0.3-0.12,0.38c-0.08,0.08-0.18,0.08-0.29,0.02l-2.36-1.36
						c-0.25-0.14-0.43-0.33-0.54-0.55c-0.11-0.22-0.17-0.42-0.2-0.59l-0.53-2.7l-4.99-2.88l-0.52,2.09
						c-0.03,0.14-0.09,0.26-0.2,0.36c-0.11,0.1-0.29,0.08-0.53-0.06l-2.36-1.36c-0.11-0.07-0.21-0.18-0.29-0.36
						c-0.08-0.17-0.12-0.34-0.12-0.52c0-0.1,0.02-0.23,0.08-0.39l4.09-15.83c0.05-0.18,0.14-0.34,0.27-0.48
						c0.13-0.14,0.32-0.13,0.57,0.01L364.32,139.14z M361.28,150.01l3.04,1.75l-1.52-7.81L361.28,150.01z"/>
					<path class="st8" d="M377.84,146.95c0.83,0.48,1.56,1.04,2.21,1.68c0.65,0.65,1.2,1.37,1.66,2.17c0.46,0.8,0.81,1.69,1.05,2.67
						c0.24,0.98,0.37,2.03,0.37,3.14c0,1.44-0.19,2.53-0.58,3.26c-0.39,0.73-0.94,1.14-1.65,1.23l2.33,8.21
						c0.04,0.14,0.06,0.25,0.06,0.35c0,0.17-0.04,0.3-0.12,0.38c-0.08,0.08-0.18,0.08-0.29,0.02l-2.55-1.47
						c-0.25-0.14-0.43-0.33-0.53-0.57c-0.11-0.23-0.19-0.46-0.25-0.67l-2.08-7.38l-1.73-1v6.18c0,0.21-0.05,0.37-0.15,0.46
						c-0.1,0.1-0.22,0.1-0.36,0.03l-2.46-1.42c-0.14-0.08-0.26-0.22-0.36-0.44c-0.1-0.21-0.15-0.42-0.15-0.64V144.5
						c0-0.21,0.05-0.37,0.15-0.46c0.1-0.1,0.22-0.11,0.36-0.03L377.84,146.95z M375.72,154.48l2.12,1.22c0.53,0.3,0.96,0.4,1.3,0.29
						c0.34-0.11,0.52-0.57,0.52-1.38c0-0.81-0.17-1.47-0.52-1.97c-0.34-0.51-0.78-0.91-1.3-1.21l-2.12-1.22V154.48z"/>
					<path class="st8" d="M396.22,157.56c0.14,0.08,0.26,0.23,0.36,0.44c0.1,0.21,0.15,0.42,0.15,0.64v3.06
						c0,0.21-0.05,0.37-0.15,0.46c-0.1,0.1-0.22,0.1-0.36,0.03l-3.3-1.91v14.81c0,0.21-0.05,0.37-0.15,0.46
						c-0.1,0.1-0.22,0.1-0.36,0.03l-2.46-1.42c-0.14-0.08-0.26-0.22-0.36-0.44c-0.1-0.21-0.15-0.42-0.15-0.63v-14.81l-3.3-1.91
						c-0.14-0.08-0.26-0.22-0.36-0.44c-0.1-0.21-0.15-0.42-0.15-0.64v-3.06c0-0.21,0.05-0.37,0.15-0.46c0.1-0.1,0.22-0.1,0.36-0.03
						L396.22,157.56z"/>
				</g>
			</g>
			<g>
				<path class="st5" d="M288.58,45.33c3.37,1.94,6.09,6.67,6.09,10.55c0,3.89-2.73,5.46-6.09,3.52c-3.37-1.94-6.09-6.67-6.09-10.55
					C282.49,44.97,285.21,43.39,288.58,45.33z"/>
				<path id="XMLID_532_" class="st10" d="M292.1,53.26c0-0.68-0.16-1.39-0.43-2.01l0,0l-0.01-0.01c-0.31-0.73-0.77-1.34-1.29-1.64
					c-0.88-0.52-1.61,0.53-1.73,1.77c-0.1-1.37-0.82-3.27-1.7-3.79c-0.51-0.3-0.97-0.23-1.29,0.13l-0.01,0.01l0,0
					c-0.27,0.31-0.44,0.83-0.44,1.5c-0.01,2.1,1.25,4,2.31,5.99l1.11,2.1l1.12-0.78C290.83,55.77,292.1,55.36,292.1,53.26z"/>
			</g>
			<g>
				<path class="st5" d="M306.86,55.89c3.37,1.94,6.09,6.67,6.09,10.55c0,3.89-2.73,5.46-6.09,3.52c-3.36-1.94-6.09-6.67-6.09-10.55
					C300.77,55.52,303.49,53.94,306.86,55.89z"/>
				<path id="XMLID_533_" class="st10" d="M310.3,63.84c0-0.68-0.16-1.39-0.43-2.01l0,0l-0.01-0.01c-0.31-0.73-0.77-1.34-1.29-1.64
					c-0.88-0.52-1.61,0.53-1.73,1.77c-0.1-1.37-0.82-3.27-1.7-3.79c-0.51-0.3-0.97-0.23-1.29,0.13l-0.01,0.01l0,0
					c-0.27,0.31-0.44,0.83-0.44,1.5c-0.01,2.1,1.25,4,2.31,5.99l1.11,2.1l1.12-0.78C309.02,66.35,310.29,65.93,310.3,63.84z"/>
			</g>
			<g>
				<path class="st5" d="M325.14,66.44c3.37,1.94,6.09,6.67,6.09,10.55c0,3.89-2.73,5.46-6.09,3.52c-3.37-1.94-6.09-6.67-6.09-10.55
					C319.04,66.07,321.77,64.5,325.14,66.44z"/>
				<path id="XMLID_534_" class="st10" d="M328.58,74.39c0-0.68-0.16-1.39-0.43-2.01l0,0l-0.01-0.01c-0.31-0.73-0.77-1.34-1.29-1.64
					c-0.88-0.52-1.61,0.53-1.73,1.77c-0.1-1.37-0.82-3.27-1.7-3.79c-0.51-0.3-0.97-0.23-1.29,0.13l-0.01,0.01l0,0
					c-0.27,0.31-0.44,0.83-0.44,1.5c-0.01,2.1,1.25,4,2.31,5.99l1.11,2.1l1.12-0.78C327.3,76.9,328.57,76.49,328.58,74.39z"/>
			</g>
			<g>
				<path class="st10" d="M343.03,78.15l85.21,49.2c2.39,1.38,4.33,4.6,4.33,7.19c0,2.59-1.94,3.57-4.33,2.19l-85.21-49.2
					c-2.39-1.38-4.33-4.6-4.33-7.19S340.64,76.77,343.03,78.15z"/>
				<path class="st11" d="M341.1,81.71c0,1.3,0.97,2.9,2.17,3.59l85.6,49.49c1.2,0.69,2.17,0.2,2.17-1.1c0-1.3-0.97-2.9-2.17-3.6
					l-85.6-49.49C342.07,79.93,341.1,80.42,341.1,81.71z"/>
			</g>
			<g class="st7">
				<path class="st8" d="M437.03,135.29c-0.04-0.11-0.06-0.21-0.04-0.3c0.01-0.09,0.04-0.16,0.1-0.19l1.94-1.17
					c0.05-0.03,0.11-0.06,0.17-0.09c0.07-0.03,0.15-0.02,0.24,0.03l1.1,0.63c0.07,0.04,0.12,0.11,0.17,0.21
					c0.05,0.1,0.07,0.2,0.07,0.31v8.95c0,0.1-0.02,0.18-0.07,0.22c-0.05,0.05-0.1,0.05-0.17,0.01l-1.18-0.68
					c-0.07-0.04-0.12-0.11-0.17-0.21c-0.05-0.1-0.07-0.2-0.07-0.3v-6.06l-1.07,0.63c-0.05,0.03-0.11,0.03-0.18-0.03
					c-0.07-0.05-0.12-0.13-0.16-0.24L437.03,135.29z"/>
				<path class="st8" d="M445.14,136.72c0.45,0.26,0.84,0.59,1.16,0.98c0.32,0.39,0.59,0.82,0.81,1.28
					c0.21,0.46,0.37,0.96,0.48,1.47c0.11,0.52,0.17,1.03,0.18,1.54c0.01,0.4,0.02,0.82,0.02,1.26c0,0.43-0.01,0.84-0.02,1.21
					c-0.02,0.49-0.08,0.93-0.18,1.33c-0.11,0.4-0.26,0.71-0.48,0.92c-0.21,0.22-0.48,0.34-0.81,0.35c-0.32,0.02-0.71-0.11-1.16-0.37
					c-0.45-0.26-0.84-0.59-1.16-0.97c-0.32-0.39-0.59-0.82-0.81-1.28c-0.21-0.46-0.37-0.96-0.48-1.47
					c-0.11-0.52-0.17-1.03-0.18-1.54c-0.01-0.39-0.02-0.8-0.02-1.23c0-0.43,0.01-0.85,0.02-1.24c0.02-0.49,0.08-0.93,0.18-1.33
					c0.11-0.4,0.26-0.7,0.48-0.92c0.21-0.22,0.48-0.34,0.81-0.35C444.31,136.33,444.69,136.46,445.14,136.72z M446.11,143.43
					c0.02-0.77,0.02-1.55,0-2.33c-0.01-0.24-0.03-0.46-0.07-0.68c-0.03-0.21-0.08-0.41-0.16-0.6c-0.07-0.18-0.17-0.35-0.29-0.5
					c-0.12-0.15-0.27-0.28-0.45-0.39c-0.18-0.1-0.33-0.15-0.45-0.13c-0.12,0.01-0.22,0.07-0.29,0.17c-0.07,0.1-0.13,0.24-0.16,0.41
					c-0.04,0.17-0.06,0.38-0.06,0.6c-0.03,0.75-0.03,1.53,0,2.33c0.01,0.23,0.03,0.46,0.06,0.67c0.03,0.21,0.09,0.41,0.16,0.6
					c0.07,0.19,0.17,0.36,0.29,0.51c0.12,0.15,0.27,0.28,0.45,0.38c0.18,0.1,0.33,0.15,0.45,0.14c0.12-0.01,0.22-0.07,0.29-0.17
					c0.08-0.1,0.13-0.24,0.16-0.41C446.08,143.85,446.1,143.65,446.11,143.43z"/>
				<path class="st8" d="M454.37,145.3c0,0.27-0.02,0.52-0.05,0.75c-0.04,0.23-0.1,0.44-0.18,0.62c-0.09,0.19-0.2,0.35-0.34,0.5
					c-0.14,0.15-0.31,0.28-0.52,0.39l-1.26,0.74l2.26,1.3c0.07,0.04,0.12,0.11,0.17,0.21c0.05,0.1,0.07,0.2,0.07,0.31v1.47
					c0,0.1-0.03,0.18-0.07,0.22c-0.05,0.05-0.11,0.05-0.17,0.01l-4.75-2.74c-0.07-0.04-0.12-0.11-0.17-0.21
					c-0.05-0.1-0.07-0.2-0.07-0.3v-1.19c0-0.15,0.02-0.28,0.06-0.41c0.04-0.13,0.11-0.21,0.2-0.26l2.69-1.41
					c0.21-0.12,0.34-0.26,0.4-0.43c0.05-0.17,0.08-0.34,0.08-0.53c0-0.06-0.01-0.16-0.02-0.28c-0.02-0.12-0.05-0.26-0.1-0.41
					c-0.05-0.15-0.13-0.29-0.23-0.43c-0.1-0.14-0.23-0.26-0.4-0.36c-0.17-0.1-0.3-0.13-0.41-0.11c-0.11,0.03-0.19,0.08-0.24,0.16
					c-0.06,0.08-0.1,0.17-0.12,0.27c-0.03,0.1-0.05,0.17-0.06,0.22c-0.03,0.11-0.08,0.17-0.14,0.18c-0.06,0-0.14-0.02-0.22-0.07
					l-1.11-0.64c-0.05-0.03-0.1-0.09-0.14-0.17c-0.04-0.08-0.06-0.17-0.06-0.25c0.01-0.38,0.06-0.74,0.16-1.06
					c0.1-0.32,0.26-0.58,0.46-0.78c0.21-0.19,0.46-0.3,0.77-0.31c0.31-0.02,0.67,0.1,1.09,0.34c0.4,0.23,0.75,0.52,1.05,0.88
					c0.3,0.35,0.56,0.74,0.76,1.16c0.2,0.42,0.36,0.85,0.46,1.31C454.31,144.44,454.37,144.87,454.37,145.3z"/>
				<path class="st8" d="M457.56,150.84c0.04,0.11,0.09,0.22,0.14,0.34c0.05,0.12,0.11,0.24,0.19,0.36
					c0.07,0.12,0.16,0.24,0.26,0.35c0.1,0.11,0.22,0.21,0.36,0.29c0.13,0.07,0.25,0.12,0.36,0.13c0.11,0.02,0.22,0,0.31-0.05
					c0.09-0.05,0.16-0.13,0.21-0.25c0.05-0.12,0.08-0.28,0.08-0.48c0-0.31-0.08-0.62-0.24-0.91c-0.16-0.29-0.38-0.52-0.65-0.67
					c-0.08-0.05-0.16-0.08-0.24-0.08c-0.08-0.01-0.14-0.01-0.21,0c-0.06,0.01-0.12,0.01-0.18,0.02c-0.05,0.01-0.1,0-0.13-0.02
					l-1.4-0.81c-0.07-0.04-0.13-0.11-0.18-0.21c-0.05-0.1-0.07-0.2-0.06-0.3l0.27-4.79c0.01-0.1,0.03-0.17,0.08-0.22
					c0.04-0.05,0.1-0.05,0.17-0.01l3.85,2.22c0.07,0.04,0.12,0.11,0.17,0.21c0.05,0.1,0.07,0.2,0.07,0.3v1.47
					c0,0.1-0.02,0.18-0.07,0.22c-0.05,0.05-0.11,0.05-0.17,0.01l-2.62-1.51l-0.06,1.2c0.11-0.03,0.23-0.03,0.37-0.01
					c0.14,0.02,0.3,0.08,0.46,0.18c0.35,0.2,0.67,0.46,0.97,0.78c0.3,0.32,0.55,0.68,0.77,1.08c0.22,0.4,0.39,0.84,0.51,1.32
					c0.12,0.48,0.19,0.98,0.19,1.51c0,0.55-0.07,1-0.2,1.35c-0.13,0.35-0.32,0.6-0.56,0.75c-0.24,0.15-0.51,0.21-0.83,0.18
					c-0.32-0.04-0.66-0.16-1.03-0.37c-0.41-0.24-0.77-0.53-1.09-0.87c-0.32-0.35-0.59-0.72-0.81-1.12c-0.22-0.4-0.39-0.81-0.51-1.24
					c-0.12-0.42-0.18-0.83-0.19-1.21c0-0.08,0.02-0.14,0.06-0.18c0.04-0.04,0.09-0.04,0.14-0.01l1.14,0.66
					c0.1,0.06,0.17,0.12,0.22,0.21C457.51,150.73,457.54,150.8,457.56,150.84z"/>
			</g>
		</g>
	</g>
</g>
<g id="Character_1_">
	<g id="Character">
		<g>
			<g id="XMLID_3409_">
				<g id="XMLID_3414_">
					<g id="XMLID_3423_">
						<path id="XMLID_3424_" class="st12" d="M243.75,354.61c-0.08-0.17-5.57-9.69-5.57-9.69s1.17,0.7,6.7-2.41
							c2.81-1.58,5.74-4.39,5.74-4.39l3.65,7.06c2.33,2.47,7.22-0.22,12.79-2.38c0.94-0.36,1.89-0.78,2.83-1.21l0.06-0.02
							c3.05-0.98,6.65,0.07,4.12,3.55c-2.53,3.48-7.58,5.87-12.25,8.04C256.21,355.75,246.33,360.18,243.75,354.61z"/>
					</g>
					<g id="XMLID_3415_">
						<path id="XMLID_3422_" class="st13" d="M284.71,342.94c0,0,0.93,1.03,1.25,3.04c0.19,1.17-1.63,5.79-6,9.46
							c-4.37,3.68-10.51,5.45-13.18,7.04c-2.67,1.59-4.89,3.94-8.08,5.66c-3.29,1.77-6.44,3.04-10.45,1.68
							c-0.88-0.81-2.16-2.86-2.02-3.13C246.63,365.96,284.71,342.94,284.71,342.94z"/>
						<path id="XMLID_3421_" class="st8" d="M255.44,345.93c2.59,0.95,6.86-1.3,11.63-3.14c4.49-1.74,9.28-4.73,12.72-4.46
							c3.43,0.27,7.03,3.29,4.02,9.15c-0.87,1.7-2.85,4.79-4.73,6.08c-4.79,3.28-9.5,4.67-12.68,6.4
							c-4.14,2.25-6.05,4.84-10.02,6.39c-5.14,2-8.85,1.51-10.13,0.34c-1.29-1.18-5.12-12.36-2.78-12.72c0,0,1.92,3.44,9.64-2.4
							C256.46,349.01,255.8,346.72,255.44,345.93z"/>
						<path id="XMLID_531_" class="st14" d="M255.44,345.93c2.59,0.95,6.86-1.3,11.63-3.14c4.49-1.74,9.28-4.73,12.72-4.46
							c3.43,0.27,7.03,3.29,4.02,9.15c-0.87,1.7-2.85,4.79-4.73,6.08c-4.79,3.28-9.5,4.67-12.68,6.4
							c-4.14,2.25-6.05,4.84-10.02,6.39c-5.14,2-8.85,1.51-10.13,0.34c-1.29-1.18-5.12-12.36-2.78-12.72c0,0,1.92,3.44,9.64-2.4
							C256.46,349.01,255.8,346.72,255.44,345.93z"/>
						<path id="XMLID_3418_" class="st10" d="M271.73,348.21c0,0-1.76-4.69-5.65-5.03c0,0-1.28-0.23-1.89,0.77
							c0,0,3.43-0.38,5.99,4.98c0,0,0.27,0.33,0.95,0.01C271.36,348.84,271.86,348.6,271.73,348.21z"/>
						<path id="XMLID_3417_" class="st10" d="M261.25,345.12c0,0-0.05-0.16,0.75-0.53c0.58-0.27,1-0.15,1-0.15s2.96,0.46,4.77,5.36
							c0,0,0.14,0.61-0.62,0.99c-0.75,0.38-1.08-0.25-1.08-0.25S264.15,345.39,261.25,345.12z"/>
						<path id="XMLID_3416_" class="st10" d="M258.42,345.97c0,0,0.07-0.34,0.7-0.5c0.79-0.2,1.05,0.06,1.05,0.06
							s2.4,1.44,3.52,5.65c0,0,0.26,0.69-0.71,1.02c-0.97,0.33-1.04-0.51-1.04-0.51S260.2,346.41,258.42,345.97z"/>
					</g>
				</g>
				<g id="XMLID_3410_">
					<g id="XMLID_3411_">
						<path id="XMLID_3413_" class="st2" d="M221.86,285.8c7.74,11.9,30.97,53.79,30.97,53.79s-5.73,8.68-14.65,7.74l-33.95-50.84
							L221.86,285.8z"/>
					</g>
				</g>
			</g>
			<g id="XMLID_3392_">
				<g id="XMLID_3395_">
					<g id="XMLID_3407_">
						<path id="XMLID_3408_" class="st12" d="M276.29,372.08c-1.17-1.15-6.4-9.73-6.4-9.73s3.92,1.3,9.68-1.35
							c2.93-1.35,5.13-5.27,5.13-5.27l4.37,8.37c2.12,2.66,6.86,0.68,12.59-1.01c0.96-0.28,1.94-0.63,2.92-0.98l0.06-0.02
							c3.12-0.73,6.62,0.61,3.82,3.88c-2.81,3.27-8.04,5.23-12.86,7.01C289.8,375.13,280.66,376.4,276.29,372.08z"/>
					</g>
					<g id="XMLID_3396_">
						<path id="XMLID_3406_" class="st13" d="M321.45,362.71c0,0,0.91,1.18,1.07,3.36c0.1,1.27-2.25,6.05-7.25,9.61
							c-5,3.55-11.72,4.91-14.72,6.38c-3,1.46-5.58,3.79-9.14,5.35c-3.67,1.61-7.16,2.69-11.33,0.89c-0.87-0.94-2.07-3.26-1.89-3.53
							C278.68,384.02,321.45,362.71,321.45,362.71z"/>
						<path id="XMLID_3404_" class="st8" d="M289.9,363.26c0.41,0.17,0.82,0.34,1.24,0.46c0.44,0.12,0.82,0.04,1.27,0
							c1-0.08,1.98-0.27,2.95-0.52c2.44-0.62,4.81-1.48,7.22-2.19c4.96-1.47,10.35-4.25,14-3.66c3.65,0.59,7.57,4.05,3.83,10.06
							c-1.08,1.74-3.42,4.77-5.4,6.12c-5.17,3.49-11.11,4.23-14.66,5.8c-4.63,2.04-6.9,4.65-11.28,5.96
							c-5.68,1.69-9.6,0.85-10.87-0.53c-0.71-0.77-1.03-5.42-2.46-8.79c-1.23-2.91-1.48-5-0.37-5.08c0.25,0.36,0.72,0.63,1.06,0.9
							c0.44,0.36,0.95,0.6,1.49,0.76c0.75,0.21,1.54,0.26,2.32,0.29c1.39,0.07,2.8,0.12,4.14-0.26c0.38-0.11,0.77-0.26,1.02-0.57
							c0.33-0.4,0.35-0.97,0.36-1.49c0.01-0.46,0.01-0.93,0.02-1.39c0-0.25,0.01-0.51,0.1-0.75c0.12-0.28,0.35-0.49,0.58-0.68
							c0.72-0.62,1.51-1.24,1.86-2.12c0.28-0.69,0.26-1.46,0.23-2.2c-0.01-0.13-0.01-0.27,0.08-0.37c0.14-0.16,0.4-0.1,0.6-0.02
							C289.45,363.06,289.67,363.16,289.9,363.26z"/>
						<path id="XMLID_530_" class="st14" d="M289.9,363.26c0.41,0.17,0.82,0.34,1.24,0.46c0.44,0.12,0.82,0.04,1.27,0
							c1-0.08,1.98-0.27,2.95-0.52c2.44-0.62,4.81-1.48,7.22-2.19c4.96-1.47,10.35-4.25,14-3.66c3.65,0.59,7.57,4.05,3.83,10.06
							c-1.08,1.74-3.42,4.77-5.4,6.12c-5.17,3.49-11.11,4.23-14.66,5.8c-4.63,2.04-6.9,4.65-11.28,5.96
							c-5.68,1.69-9.6,0.85-10.87-0.53c-0.71-0.77-1.03-5.42-2.46-8.79c-1.23-2.91-1.48-5-0.37-5.08c0.25,0.36,0.72,0.63,1.06,0.9
							c0.44,0.36,0.95,0.6,1.49,0.76c0.75,0.21,1.54,0.26,2.32,0.29c1.39,0.07,2.8,0.12,4.14-0.26c0.38-0.11,0.77-0.26,1.02-0.57
							c0.33-0.4,0.35-0.97,0.36-1.49c0.01-0.46,0.01-0.93,0.02-1.39c0-0.25,0.01-0.51,0.1-0.75c0.12-0.28,0.35-0.49,0.58-0.68
							c0.72-0.62,1.51-1.24,1.86-2.12c0.28-0.69,0.26-1.46,0.23-2.2c-0.01-0.13-0.01-0.27,0.08-0.37c0.14-0.16,0.4-0.1,0.6-0.02
							C289.45,363.06,289.67,363.16,289.9,363.26z"/>
						<path id="XMLID_3399_" class="st10" d="M307.09,367.22c0,0-1.47-5.17-5.6-5.88c0,0-1.36-0.36-2.1,0.66c0,0,3.7-0.11,5.97,5.86
							c0,0,0.26,0.38,1.02,0.09C306.64,367.86,307.21,367.65,307.09,367.22z"/>
						<path id="XMLID_3398_" class="st10" d="M296.15,362.99c0,0-0.04-0.17,0.85-0.51c0.64-0.24,1.09-0.07,1.09-0.07
							s3.12,0.75,4.63,6.16c0,0,0.09,0.67-0.75,1c-0.84,0.34-1.13-0.36-1.13-0.36S299.23,363.53,296.15,362.99z"/>
						<path id="XMLID_3397_" class="st10" d="M293.05,363.65c0,0,0.1-0.36,0.79-0.48c0.86-0.15,1.12,0.15,1.12,0.15
							s2.44,1.76,3.27,6.35c0,0,0.22,0.76-0.85,1.03c-1.07,0.27-1.07-0.64-1.07-0.64S294.91,364.28,293.05,363.65z"/>
					</g>
				</g>
				<g id="XMLID_3393_">
					<path id="XMLID_3394_" class="st4" d="M259.31,302.91c5.6,9.95,19.51,39.7,26.68,54.48c0,0-4.92,6.75-14.36,8.06l-37.59-51.73
						l11.2-9.44L259.31,302.91z"/>
				</g>
			</g>
			<g id="XMLID_3296_">
				<g id="XMLID_3370_">
					<path id="XMLID_3371_" class="st2" d="M131.12,292.67c0,0,45.42-13.71,53.32-15.87c7.9-2.16,22.39-5.05,26.82-3.07
						c4.43,1.98,6.93,5.49,9.63,9.75c2.8,4.41,4.86,8.45,4.86,8.45s-29.76,8.13-47.74,8.13S131.12,292.67,131.12,292.67z"/>
				</g>
				<g id="XMLID_3368_">
					<path id="XMLID_3369_" class="st4" d="M134.3,274.82c-2.85,9.72-6.55,27.07,6.55,39.72c5.12,4.94,34.42,20.65,52.42,15.13
						c20.11-6.17,44.12-18.06,44.12-18.06s12.14,0.71,16.09-1.57c3.96-2.29,6.36-6.06,5.83-7.15c-6.26-12.95-11.49-19.76-25.06-18.4
						c-16.6,1.66-44.25,6.7-44.25,6.7L134.3,274.82z"/>
				</g>
			</g>
		</g>
		<g>
			<path class="st4" d="M201.87,204.36c-8.6-7.54-20.67-4.1-27.38,2.43c-10.28,10.02-16.38,22.7-14.12,28.96
				C162.98,243,201.87,204.36,201.87,204.36z"/>
			<g id="XMLID_16551_">
				<g id="XMLID_16552_">
					<path class="st4" d="M303.47,248.41c0.17-1.25-0.84-2.66-2.88-3.71l-23.8-12.17c-3.09-1.58-8.27-1.94-11.57-0.81l-21.76,7.51
						c-1.9,0.66-2.94,1.58-3,2.48c-0.05,0.66-0.4,3.22-0.42,3.95c-0.02,0.64,0.45,1.27,1.46,1.79c2.44,1.25,7.91,1.66,12.22,0.92
						l5.52-0.95c4.3-0.74,9.76-0.33,12.19,0.9c1.61,0.82,2.84,2.13,3.35,3.4l-1.29,4.43c-0.24,0.81-0.39,1.65-0.01,2.5l-0.41,1.4
						c-0.49,1.67-0.65,3.42,3.51,5.26c3.15,1.39,6.17,1.09,8.36-0.34l16.87-10.95c0.75-0.49,1.16-1.09,1.24-1.74
						C303.15,251.6,303.38,249.05,303.47,248.41z"/>
					<path class="st13" d="M275.87,254.71l0.08-11.53l-7.18-1.89l-0.65,6.09c1.34,0.22,2.49,0.53,3.31,0.95
						c1.61,0.82,2.84,2.13,3.35,3.4l-0.52,1.79L275.87,254.71z"/>
					<path class="st4" d="M302.15,245.73c2.17,1.98,2.33,2.59,1.73,10.47c-0.6,7.88-2.39,8.09-4.41,6.74
						c-2.02-1.35-3.4-5.09-5.88-3.57L302.15,245.73z"/>
					<path id="XMLID_17540_" class="st8" d="M241.93,243.54c2.44,1.25,7.91,1.66,12.22,0.92l5.52-0.95c4.3-0.74,9.76-0.33,12.19,0.9
						c2.43,1.24,4,3.59,3.52,5.27l-1.88,6.47c-0.49,1.67-0.65,3.42,3.51,5.26c3.15,1.39,6.17,1.09,8.36-0.34l16.87-10.95
						c2.19-1.42,1.46-3.86-1.63-5.44l-23.8-12.17c-3.09-1.58-8.27-1.94-11.57-0.81l-21.76,7.51
						C240.17,240.37,239.48,242.3,241.93,243.54z"/>
					<path id="XMLID_512_" class="st15" d="M241.93,243.54c2.44,1.25,7.91,1.66,12.22,0.92l5.52-0.95c4.3-0.74,9.76-0.33,12.19,0.9
						c2.43,1.24,4,3.59,3.52,5.27l-1.88,6.47c-0.49,1.67-0.65,3.42,3.51,5.26c3.15,1.39,6.17,1.09,8.36-0.34l16.87-10.95
						c2.19-1.42,1.46-3.86-1.63-5.44l-23.8-12.17c-3.09-1.58-8.27-1.94-11.57-0.81l-21.76,7.51
						C240.17,240.37,239.48,242.3,241.93,243.54z"/>
				</g>
				<g>
					<g id="XMLID_517_">
						<path class="st13" d="M294.81,244.64c-0.01-0.21-0.16-0.42-0.47-0.59c-0.7-0.39-1.91-0.44-2.7-0.12
							c-0.42,0.17-0.63,0.41-0.65,0.65c-0.01,0.16-0.09,0.77-0.1,0.94c-0.01,0.22,0.14,0.44,0.47,0.63c0.7,0.39,1.91,0.44,2.7,0.12
							c0.4-0.16,0.62-0.39,0.64-0.63C294.73,245.49,294.82,244.83,294.81,244.64z"/>
						<path class="st2" d="M289.06,247.02c0-0.22-0.15-0.43-0.47-0.61c-0.7-0.39-1.91-0.44-2.7-0.12c-0.4,0.16-0.62,0.39-0.64,0.63
							c-0.02,0.16-0.1,0.81-0.1,0.98c-0.01,0.22,0.15,0.44,0.47,0.62c0.7,0.39,1.91,0.44,2.7,0.12c0.4-0.16,0.61-0.39,0.64-0.62
							C288.98,247.84,289.06,247.19,289.06,247.02z"/>
						<path class="st13" d="M289.41,244.45c0.01-0.22-0.14-0.45-0.47-0.63c-0.7-0.39-1.91-0.44-2.7-0.12
							c-0.4,0.16-0.62,0.39-0.64,0.63c-0.02,0.16-0.09,0.79-0.1,0.96c-0.02,0.23,0.13,0.46,0.47,0.64c0.7,0.39,1.91,0.44,2.7,0.12
							c0.41-0.17,0.63-0.4,0.65-0.64C289.32,245.24,289.4,244.62,289.41,244.45z"/>
						<path class="st2" d="M294.45,247.27c0.01-0.22-0.14-0.45-0.47-0.63c-0.7-0.39-1.91-0.44-2.7-0.12
							c-0.4,0.16-0.61,0.39-0.64,0.62c-0.02,0.17-0.08,0.78-0.1,0.94c-0.03,0.23,0.12,0.47,0.47,0.66c0.7,0.39,1.91,0.44,2.7,0.12
							c0.4-0.16,0.62-0.39,0.64-0.63C294.37,248.07,294.45,247.44,294.45,247.27z"/>
					</g>
					<g id="XMLID_523_">
						<path id="XMLID_529_" class="st4" d="M291.64,243.94c-0.79,0.32-0.87,0.9-0.18,1.29c0.7,0.39,1.91,0.44,2.7,0.12
							c0.79-0.32,0.87-0.9,0.18-1.29C293.64,243.66,292.43,243.61,291.64,243.94z"/>
						<path id="XMLID_528_" class="st4" d="M285.89,246.29c-0.79,0.32-0.87,0.9-0.18,1.29c0.7,0.39,1.91,0.44,2.7,0.12
							c0.79-0.32,0.87-0.9,0.18-1.29C287.89,246.01,286.68,245.96,285.89,246.29z"/>
						<path id="XMLID_527_" class="st4" d="M286.24,243.7c-0.79,0.32-0.87,0.9-0.18,1.29c0.7,0.39,1.91,0.44,2.7,0.12
							c0.79-0.32,0.87-0.9,0.18-1.29C288.24,243.43,287.03,243.38,286.24,243.7z"/>
						<path id="XMLID_526_" class="st4" d="M291.29,246.52c-0.79,0.32-0.87,0.9-0.18,1.29c0.7,0.39,1.91,0.44,2.7,0.12
							c0.79-0.32,0.87-0.9,0.18-1.29S292.08,246.19,291.29,246.52z"/>
					</g>
				</g>
				<g>
					<polygon class="st2" points="273.15,234.12 270.62,232.71 267.75,233.88 265.22,232.47 262.34,233.65 262.23,234.71 
						263.7,235.54 262,236.23 261.88,237.3 264.41,238.71 267.28,237.53 269.81,238.94 272.68,237.77 272.8,236.7 271.33,235.88 
						273.03,235.18 					"/>
					<polygon id="XMLID_518_" class="st4" points="270.62,232.71 267.75,233.88 265.22,232.47 262.34,233.65 264.87,235.06 
						262,236.23 264.52,237.64 267.4,236.47 269.92,237.88 272.8,236.7 270.27,235.29 273.15,234.12 					"/>
					<polygon class="st13" points="267.4,236.47 267.28,237.53 264.41,238.71 264.52,237.64 					"/>
					<polygon class="st13" points="270.27,235.29 271.33,235.88 273.03,235.18 273.15,234.12 					"/>
					<polygon class="st13" points="272.8,236.7 272.68,237.77 269.81,238.94 269.92,237.88 					"/>
					<polygon class="st13" points="264.87,235.06 262.34,233.65 262.22,234.77 263.7,235.54 					"/>
				</g>
			</g>
			<path class="st12" d="M243.25,231.83c5.97-1.36,9.56-0.31,14.68-0.52c1.64-0.07,3.05-0.96,3.85-0.8c1.56,0.3,1.43,1.91,0.44,3.01
				c-0.94,1.03-2.16,2.12-6.58,2.81c-3.78,0.59-3.94,0.17-8.36,1.53l-4.85,2.28l-1.7-4.17L243.25,231.83z"/>
			<path class="st12" d="M253.99,231.31c-3.88-1.64-7.91-1.69-10.12-1.17c-4.89,1.17-3.14,6.17-3.14,6.17L253.99,231.31z"/>
			<g>
				<g>
					<g id="XMLID_3278_">
						<g id="XMLID_3279_">
							<polygon id="XMLID_3280_" class="st12" points="229.89,205.91 215.39,218.88 196.24,212.16 209.92,193.15 							"/>
						</g>
					</g>
					<g id="XMLID_3270_">
						<g id="XMLID_3273_">
							<path id="XMLID_3274_" class="st16" d="M244.3,181.03c0,0,4.86,7.38,4.31,8.1c-0.55,0.72-4.13,1.38-4.13,1.38L244.3,181.03z"
								/>
						</g>
						<g id="XMLID_3271_">
							<path id="XMLID_3272_" class="st12" d="M230.79,160.62c9.84,2.08,12.68,6.4,13.61,22.04c0.97,16.34-0.7,21.47-2.84,23.67
								c-1.45,1.48-9.5,1.75-13.56,0.63c-5.08-1.4-16.57-5.47-21.95-13.69c-6.33-9.67-7.99-22.77-1.22-28.15
								C214.36,157.56,226.79,159.77,230.79,160.62z"/>
						</g>
						<path class="st16" d="M228.45,207.07c4.23,1.06,10.71,0.63,12.66-0.43c-0.18,0.04-3.25,0.76-7.15-0.43
							c-4.03-1.23-6.49-3.04-6.49-3.04L228.45,207.07z"/>
					</g>
					<g id="XMLID_522_">
						<g id="XMLID_3267_">
							<g id="XMLID_3268_">
								<path id="XMLID_3269_" class="st13" d="M246.58,167.37c-0.01,0.01-0.02,0.01-0.03,0.02c-2.8,1.84-6.19,2.55-9.51,2.99
									c0.2,2.65-0.69,5.25-1.57,7.76c-0.61,1.74-2.79,7.19-4.96,4.12c-1.57-2.22-2.99-4.23-6.1-3.77
									c-5.12,0.76-5.81,7.29-2.59,11.26c3.23,3.97,6.24,2.45,6.24,2.45s0.31,7.04-3.51,11.93c0,0-5.61,3.28-13.33,0.54
									c-4.87-1.73-11.8-8.07-14.3-12.96c-6.87-13.45-6.62-26.17,2.18-29.89c0.95-6.35,5.95-9.19,11.65-10.5
									c7.9-1.81,15.94,3.3,23.61,0.22c1.61-0.65,3.11-1.58,4.76-2.14c0.93-0.31,2.02-0.48,2.83,0.07c0.7,0.48,0.98,1.36,1.16,2.19
									c0.33,1.52,0.43,3.21-0.4,4.53c1.16-0.53,2.34-1.06,3.6-1.23c1.26-0.18,2.64,0.05,3.59,0.9c0.89,0.78,1.29,2,1.38,3.18
									C251.49,162.36,249.37,165.53,246.58,167.37z"/>
							</g>
						</g>
						<g id="XMLID_3264_">
							<g id="XMLID_3265_">
								<path id="XMLID_3266_" class="st13" d="M198.95,163.94l-5.89-3.47c0.96-1.63,3.05-2.17,4.68-1.21
									C199.36,160.22,199.9,162.32,198.95,163.94z"/>
							</g>
						</g>
					</g>
				</g>
				<path class="st8" d="M201.87,204.36c-10.84-3.25-19.77-1.61-33.93,11.89c-15.52,14.79-26.95,39.81-30.93,66.84
					c0,0,0.53,12.49,15,20.79c15.36,8.81,39.08,6.66,48.61-9.2c0,0,1.99-14.13,8.33-21.69c4.1-4.89,13.57-15.72,20.57-23.45
					c6.09-6.73,12.45-23.14,2.88-30.87c-2.8-2.26-5.57-3.97-9.46-6.57C212.97,213.88,200.09,207.97,201.87,204.36z"/>
				<path class="st17" d="M201.87,204.36c-10.84-3.25-19.77-1.61-33.93,11.89c-15.52,14.79-26.95,39.81-30.93,66.84
					c0,0,0.53,12.49,15,20.79c15.36,8.81,39.08,6.66,48.61-9.2c0,0,1.99-14.13,8.33-21.69c4.1-4.89,13.57-15.72,20.57-23.45
					c6.09-6.73,12.45-23.14,2.88-30.87c-2.8-2.26-5.57-3.97-9.46-6.57C212.97,213.88,200.09,207.97,201.87,204.36z"/>
				<path class="st18" d="M230.39,248.53c0.16-0.2,0.32-0.41,0.48-0.62c0.07-0.09,0.14-0.19,0.21-0.28
					c0.17-0.24,0.35-0.49,0.52-0.74c0.04-0.06,0.09-0.13,0.13-0.19c0.22-0.33,0.44-0.67,0.66-1.02c0.02-0.03,0.04-0.06,0.06-0.1
					c0.2-0.32,0.39-0.65,0.58-0.98c0.04-0.08,0.09-0.15,0.13-0.23c0.17-0.31,0.35-0.63,0.51-0.96c0.03-0.06,0.06-0.12,0.09-0.18
					c0.61-1.2,1.18-2.48,1.67-3.8c0.01-0.02,0.02-0.05,0.03-0.07c1.16-3.15,1.89-6.54,1.85-9.77c-3.28,5.38-7.5,10.19-12.45,14.09
					c-6.33,4.99-13.77,8.51-19.76,13.91c-6.34,5.72-11.36,13.02-16.91,19.46c-2.23,2.59-5.5,7.72-8.9,7.45
					c-4.15-0.33-7.35-5.91-9.09-9.68c-2.77-6.03-4.85-13.36-8.59-18.84c-3.27-4.79-8.49-11.07-14.14-9.39
					c-4.94,11.11-8.55,23.57-10.45,36.5c0,0,0.53,12.49,15,20.79c1.28,0.74,2.63,1.39,4.02,1.97c0.42,0.07,0.83,0.16,1.24,0.26
					c2.07,0.54,3.99,1.54,6.14,2.02c0.25,0.05,0.5,0.1,0.76,0.15c0.29,0.05,0.57,0.11,0.86,0.16c0.3,0.05,0.61,0.1,0.92,0.14
					c0.26,0.04,0.52,0.08,0.78,0.11c0.34,0.04,0.67,0.08,1.01,0.11c0.23,0.02,0.46,0.05,0.69,0.07c0.36,0.03,0.72,0.06,1.08,0.08
					c0.21,0.01,0.43,0.03,0.64,0.04c0.37,0.02,0.74,0.03,1.11,0.03c0.22,0,0.43,0.01,0.65,0.01c0.36,0,0.72,0,1.08-0.01
					c0.23-0.01,0.47-0.01,0.7-0.02c0.34-0.01,0.67-0.03,1.01-0.05c0.26-0.02,0.52-0.04,0.78-0.06c0.31-0.02,0.61-0.05,0.92-0.08
					c0.29-0.03,0.58-0.06,0.86-0.1c0.28-0.03,0.56-0.07,0.83-0.11c0.32-0.05,0.64-0.1,0.96-0.15c0.22-0.04,0.43-0.08,0.65-0.12
					c0.43-0.08,0.85-0.17,1.28-0.27c0.09-0.02,0.18-0.04,0.26-0.06c7.87-1.85,15.13-6.25,19.38-13.31c0,0,0.1-0.68,0.31-1.81
					c0.06-0.32,0.13-0.69,0.21-1.08c0.16-0.79,0.37-1.71,0.62-2.72c0.75-3.02,1.92-6.85,3.63-10.39c0.57-1.18,1.2-2.33,1.89-3.41
					c0.35-0.54,0.71-1.06,1.09-1.56c0.19-0.25,0.38-0.49,0.58-0.73c0.26-0.31,0.53-0.63,0.83-0.98
					c3.85-4.55,10.93-12.64,17.02-19.44c0.94-1.05,1.85-2.06,2.73-3.03c0.22-0.24,0.44-0.51,0.66-0.78
					C230.26,248.69,230.32,248.61,230.39,248.53z"/>
				<path class="st12" d="M294.16,264.43c-3.35,5.34-3.98,8.69-18.49,9.82c0,0-27.18,17.06-35.92,20.19
					c-8.74,3.14-11.88-1.77-13.7-9.69c-1.81-7.9-6.6-37.73-6.6-37.73s-3.79-18.41,11.67-28.88c6.55,5.02,10.02,10.11,11.1,18.91
					c1.29,10.53,3.17,35.26,3.17,35.26s22.93-9.96,26.39-13.44c0.94-0.94,1.45-1.68,2.75-3.49c1.46-2.02,3.52-4.19,4.11-6.82
					c0.91-4.17,2.82-3.59,3.52-1.3c1.38,4.61-0.07,8.99-0.07,8.99s7.1,5.57,10.57,3.7l0.94-0.61l0,0c0.72-0.53,1.75-0.53,2.58,0.23
					C296.37,260.55,296.21,261.17,294.16,264.43z"/>
				<path class="st4" d="M229.39,216.44c8.72,4.11,12.95,10.68,13.9,20.62c0.96,9.99,2.1,27.21,2.1,27.21s-0.54,6.3-8.88,9.23
					c-8.34,2.93-14.37-1.66-14.37-1.66l-3.45-22.5C218.7,249.34,213.81,224.95,229.39,216.44z"/>
			</g>
		</g>
	</g>
</g>
<g id="Puff_1_">
	<g id="Puff">
		<path class="st8" d="M166.06,289.21c-14.27-17.47-27.55-38.42-38.52-44.74c-19.76-11.38-59.9,13.62-64.29,70.7
			s37.69,89.05,78.48,97.8c20.85,4.47,48.25-0.07,58.97-3.78c32.76-11.35,51.12-27.23,58.97-49.18c8.61-24.06,2.1-38.53-9.11-44.69
			c-5-2.75-10.85-3.61-16.49-2.73C194.29,318.87,177.11,302.73,166.06,289.21z"/>
		<path class="st15" d="M215.85,403.15c0.6-0.28,1.21-0.55,1.8-0.84c2.86-13.96,1.25-27.13-4.85-39.26
			c-5.96-11.85-16.19-22.96-31.28-33.96c-22.25-16.23-30.98-31.63-39.42-46.52c-3.09-5.46-6.02-10.62-9.54-15.71
			c-7.88-11.37-15.72-17.33-24.69-18.77c-3.46-0.55-7.1-0.42-10.95,0.38c-1.24,0.81-2.46,1.68-3.68,2.63
			c5.17-1.66,9.94-2.13,14.38-1.42c8.51,1.37,16.01,7.12,23.62,18.1c3.48,5.03,6.39,10.15,9.46,15.58
			c8.52,15.04,17.34,30.6,39.87,47.03C200.02,344.58,223.91,367.16,215.85,403.15z"/>
		<path class="st19" d="M141.73,412.97c20.85,4.47,48.25-0.07,58.97-3.78c32.76-11.35,51.12-27.23,58.97-49.18
			c0.21-0.59,0.39-1.16,0.59-1.74c-0.16-0.06-0.32-0.13-0.49-0.19c-8.39-2.73-17.41,0.54-25.72,3.49
			c-20.9,7.42-44.51,12.91-64.75,3.83c-13.32-5.97-27.05-15.33-34.13-28.1s-10.34-27.36-15.49-41.03c-2.32-6.15-4.48-14.1-9.7-20.09
			c-4.88-5.6-11.34-9.68-18.77-9.66c-6.1,0.01-11.74,1.83-16.96,8.06c-5.68,10.91-9.77,24.46-11.01,40.58
			C58.86,372.25,100.95,404.22,141.73,412.97z"/>
	</g>
</g>
<g id="Console_1_">
	<g id="Console">
		<g id="XMLID_17786_">
			<path id="XMLID_17793_" class="st2" d="M433.45,365.54l28.4-16.39c1.41-0.81,2.55-2.79,2.55-4.42l0.01,0.33
				c0-1.63-1.14-3.6-2.55-4.42l-57.11-32.97c-1.41-0.81-3.69-0.81-5.1,0l-28.4,16.39c-1.41,0.81-2.55,2.79-2.55,4.42l-0.01-0.33
				c0,1.63,1.14,3.6,2.55,4.42l57.11,32.97C429.76,366.35,432.04,366.35,433.45,365.54z"/>
			<path id="XMLID_17788_" class="st13" d="M430.91,322.77l30.95,17.87c1.41,0.81,2.55,2.79,2.55,4.42l-0.01-0.33
				c0,1.63-1.14,3.6-2.55,4.42l-28.4,16.39c-0.7,0.41-1.63,0.61-2.55,0.61L430.91,322.77z"/>
			<path id="XMLID_17787_" class="st4" d="M461.86,343.58l-28.4,16.39c-1.41,0.81-3.69,0.81-5.1,0L371.25,327
				c-1.41-0.81-1.41-2.13,0-2.95l28.4-16.39c1.41-0.81,3.69-0.81,5.1,0l57.11,32.97C463.27,341.45,463.27,342.77,461.86,343.58z"/>
		</g>
		<g>
			<path class="st8" d="M461.86,338.19v2.71l-29.48,17.02c-0.33,0.2-0.69,0.32-1.06,0.37c-0.64,0.09-1.3-0.03-1.88-0.37
				l-58.19-33.59v-2.81l57.11,33.06c0.71,0.41,1.62,0.61,2.54,0.61c0.93,0,1.85-0.2,2.56-0.61L461.86,338.19z"/>
			<path class="st15" d="M461.86,338.19v2.71l-29.48,17.02c-0.33,0.2-0.69,0.32-1.06,0.37c-0.14,0.01-0.28,0.02-0.42,0.02v-3.12
				c0.93,0,1.85-0.2,2.56-0.61L461.86,338.19z"/>
		</g>
		<g id="XMLID_17779_">
			<path id="XMLID_17775_" class="st2" d="M433.46,354.58l28.4-16.39c1.41-0.81,2.55-2.79,2.55-4.42l0-5.25
				c0-1.63-1.14-3.6-2.55-4.42l-57.11-32.97c-1.41-0.81-3.69-0.81-5.1,0l-28.4,16.4c-1.41,0.81-2.55,2.79-2.55,4.42l0,5.25
				c0,1.63,1.14,3.51,2.55,4.33l57.11,33.06C429.77,355.4,432.05,355.4,433.46,354.58z"/>
			<path id="XMLID_17785_" class="st13" d="M430.91,306.23l30.95,17.87c1.41,0.81,2.55,2.79,2.55,4.42v5.25
				c0,1.63-1.14,3.6-2.55,4.42l-28.4,16.39c-0.7,0.41-1.63,0.61-2.55,0.61V306.23z"/>
			<path id="XMLID_17778_" class="st4" d="M461.86,327.05l-28.4,16.39c-1.41,0.81-3.69,0.81-5.1,0l-57.11-32.97
				c-1.41-0.81-1.41-2.13,0-2.95l28.4-16.4c1.41-0.81,3.69-0.81,5.1,0l57.11,32.97C463.27,324.91,463.27,326.23,461.86,327.05z"/>
		</g>
		<path id="XMLID_17784_" class="st8" d="M422.25,314.02c3.15,1.82,3.15,4.75,0,6.55c-3.15,1.8-8.25,1.8-11.39,0
			c-3.15-1.8-3.15-4.73,0-6.55C414.01,312.2,419.11,312.2,422.25,314.02z"/>
		<path id="XMLID_538_" class="st8" d="M375.88,315.93c0.55,0.31,1,1.09,1,1.73c0,0.65-0.45,0.92-1,0.6c-0.55-0.31-1-1.09-1-1.73
			C374.88,315.89,375.33,315.62,375.88,315.93z"/>
		<path id="XMLID_535_" class="st8" d="M375.88,319.78c0.55,0.31,1,1.09,1,1.73s-0.45,0.92-1,0.6c-0.55-0.31-1-1.09-1-1.73
			C374.88,319.74,375.33,319.47,375.88,319.78z"/>
	</g>
</g>
<g id="Speach_Bubble">
	<g id="Speach_Bubble_1_">
		<g id="XMLID_555_">
			<path id="XMLID_561_" class="st8" d="M118.06,150.54l0-15.01l12.67-1.1c0.2-0.02,0.38,0.02,0.53,0.11
				c0.49,0.27,10.7,6.14,10.85,6.23c0.47,0.28,0.64,0.96,0.21,1.43l-13.43,14.56L118.06,150.54z"/>
			<path id="XMLID_559_" class="st8" d="M128.88,156.75l13.43-14.56c0.57-0.62,0.08-1.63-0.76-1.55l-12.67,1.1V156.75z"/>
			<path id="XMLID_558_" class="st8" d="M118.06,135.52l10.82,6.22l12.67-1.11c0.16-0.01,0.31,0.01,0.44,0.06
				c-1.01-0.6-10.28-5.92-10.73-6.17c-0.15-0.09-0.33-0.13-0.53-0.11L118.06,135.52z"/>
			<path id="XMLID_556_" class="st6" d="M118.06,135.52l10.82,6.22l12.67-1.11c0.16-0.01,0.31,0.01,0.44,0.06
				c-1.01-0.6-10.28-5.92-10.73-6.17c-0.15-0.09-0.33-0.13-0.53-0.11L118.06,135.52z"/>
		</g>
		<g id="Speach_Bubble_2_">
			<g id="XMLID_543_">
				<path id="XMLID_547_" class="st8" d="M128.89,123.57c0-2.01-1.41-4.44-3.14-5.45l-2.56-1.48c-1.74-1-4.55-1-6.29,0l-39.26,22.71
					c-1.74,1-3.14,3.44-3.14,5.45V188c0,2.01,1.41,4.44,3.14,5.45l2.56,1.48c1.74,1,4.55,1,6.29,0l39.26-22.71
					c1.74-1,3.14-3.44,3.14-5.45L128.89,123.57z"/>
				<path id="XMLID_546_" class="st15" d="M74.49,188c0,2.01,1.41,4.44,3.14,5.45l2.56,1.48c1.57,0.91,4.01,0.99,5.75,0.25
					c-1.48,0.56-2.61-0.28-2.61-2.07l0-43.2c0-1,0.35-2.11,0.92-3.1l-8.85-5.11c-0.57,0.99-0.92,2.1-0.92,3.1V188z"/>
				<path id="XMLID_545_" class="st6" d="M128.78,122.68c-0.37-1.33-1.58-1.76-3.04-0.92l-39.27,22.71
					c-0.87,0.5-1.66,1.35-2.21,2.35l-8.85-5.1c0.57-1,1.35-1.85,2.21-2.35l39.26-22.71c1.75-1,4.56-1,6.29,0l2.57,1.48
					C127.23,118.98,128.48,120.89,128.78,122.68z"/>
			</g>
		</g>
		<polygon id="Heart" class="st3" points="97.66,147.72 101.21,145.67 101.21,148.29 104.77,146.24 104.77,151.83 108.32,149.77 
			108.32,144.18 111.88,142.13 111.88,139.51 115.44,137.45 115.44,140.08 118.99,138.02 118.99,143.61 122.55,141.56 
			122.55,149.77 118.99,151.83 118.99,155.93 115.44,157.99 115.44,162.09 111.88,164.15 111.88,168.25 108.32,170.3 108.32,174.41 
			104.77,176.46 104.77,172.36 101.21,174.41 101.21,170.3 97.66,172.36 97.66,168.25 94.1,170.3 94.1,166.2 90.54,168.25 
			90.54,160.04 94.1,157.99 94.1,152.39 97.66,150.34 		"/>
	</g>
</g>
</svg>
