<?xml version="1.0" encoding="utf-8"?>
<!-- Generator: Adobe Illustrator 25.4.1, SVG Export Plug-In . SVG Version: 6.00 Build 0)  -->
<svg version="1.1" xmlns="http://www.w3.org/2000/svg" xmlns:xlink="http://www.w3.org/1999/xlink" x="0px" y="0px"
	 viewBox="0 0 374.83 276.38" style="enable-background:new 0 0 374.83 276.38;" xml:space="preserve">
<style type="text/css">
	.st0{fill:#58DAE2;}
	.st1{fill:#2F130C;}
	.st2{fill:none;stroke:#6E6BF7;stroke-width:2.4716;stroke-miterlimit:10;}
	.st3{fill:#2D2B6B;}
	.st4{fill:none;stroke:#50549F;stroke-width:7;stroke-miterlimit:10;}
	.st5{fill:#9B110B;}
	.st6{fill:#FF5B3D;}
	.st7{fill:#FF7D2C;}
	.st8{fill:none;stroke:#716EFF;stroke-width:1.6478;stroke-miterlimit:10;}
	.st9{fill:#6865E8;}
	.st10{fill:none;stroke:#6E6BF7;stroke-width:1.1005;stroke-miterlimit:10;}
	.st11{fill:#FFA3D8;}
	.st12{fill:#FFCA5F;}
	.st13{fill:#3E4184;}
	.st14{fill:#BA301D;}
	.st15{fill:#FFFFFF;}
	.st16{fill:#716EFD;}
	.st17{fill:none;stroke:#FFF7F2;stroke-width:0.75;stroke-miterlimit:10;}
	.st18{fill:none;stroke:#FFF7F2;stroke-width:0.6907;stroke-miterlimit:10;}
	.st19{fill:none;stroke:#F2D4C5;stroke-width:1.0301;stroke-linecap:round;stroke-linejoin:round;stroke-miterlimit:10;}
	.st20{fill:none;stroke:#F2D4C5;stroke-width:2;stroke-linecap:round;stroke-linejoin:round;stroke-miterlimit:10;}
	.st21{fill:none;stroke:#3E4184;stroke-width:2.614;stroke-miterlimit:10;}
	.st22{fill:#5055B3;}
	.st23{fill:none;stroke:#2D2B6B;stroke-width:5.2279;stroke-miterlimit:10;}
	.st24{fill:none;stroke:#716EFD;stroke-width:2.614;stroke-miterlimit:10;}
	.st25{fill:none;stroke:#716EFD;stroke-width:0.8713;stroke-linejoin:round;stroke-miterlimit:10;}
	.st26{fill:none;stroke:#716EFD;stroke-width:2.614;stroke-linecap:round;stroke-linejoin:round;stroke-miterlimit:10;}
	.st27{fill:#F2D4C5;}
	.st28{fill:#FF8772;}
	.st29{opacity:0.47;fill:#2D2B6B;}
	.st30{fill:#2D1A14;}
	.st31{fill:#FFF7F2;}
	.st32{fill:none;stroke:#F2D4C5;stroke-width:1.148;stroke-linecap:round;stroke-linejoin:round;stroke-miterlimit:10;}
	.st33{fill:none;stroke:#FFF7F2;stroke-width:0.8358;stroke-miterlimit:10;}
	.st34{fill:none;stroke:#2F130C;stroke-width:1.1144;stroke-miterlimit:10;}
	.st35{fill:none;stroke:#716EFD;stroke-width:2.2289;stroke-linecap:round;stroke-linejoin:round;stroke-miterlimit:10;}
</style>
<g id="BACKGROUND">
</g>
<g id="OBJECT">
	<g>
		<path class="st0" d="M330.49,133.85c-11.86,9.82-24.17,18.67-25.89,35.89c-5.16,51.51-65.53,41.2-104.85,32.91
			c-4.92-1.04-9.51-2.05-13.62-2.9c-16.88-3.49-39.17-1.21-56.94,2.03c-1.83,0.34-3.62,0.68-5.34,1.03
			c-10.22,2.08-20.23,5.31-30.58,6.69c-17.1,2.28-34.43-5.55-35.32-26.02c-1.1-25.07,17.43-43.66,39-49.32
			c24.25-6.36,49.34-2.29,74.07-1c3.45,0.19,6.9,0.31,10.33,0.34c1.21,0.02,2.43,0.02,3.64,0.01c8.51-0.08,16.95-0.79,25.27-2.69
			c26.33-6,48.06-28.45,70.64-42.66c13.85-8.72,31.37-20.53,48.53-19.41C365.18,71.11,348.25,119.14,330.49,133.85z"/>
		<ellipse class="st13" cx="165.29" cy="120.76" rx="7.08" ry="8.21"/>
		<g>
			<g>
				<path class="st14" d="M185.12,132.77c-0.57,3.01-0.9,6.07-0.98,9.14c-0.13,4.59,0.46,9.6,3.66,12.89
					c-1.98,2.73-5,4.97-8.27,5.81c-3.27,0.83-6.83,0.49-9.88-0.96c-0.83-0.39-1.62-0.87-2.42-1.34c-0.97-0.58-1.94-1.16-2.91-1.73
					c4.21-7.25,7.8-15.27,6.68-23.57c2.1-0.39,5.07-1.28,7.17-1.67c0.91-0.17,1.83-0.34,2.76-0.3
					C182.4,131.1,183.67,133.02,185.12,132.77z"/>
				<path class="st1" d="M170.4,142.55c4.87-2.42,9.1-5.91,12.15-10.84c-0.53-0.34-1.06-0.64-1.63-0.66
					c-0.93-0.04-1.85,0.13-2.76,0.3c-2.1,0.39-5.07,1.28-7.17,1.67C171.44,136.24,171.16,139.43,170.4,142.55z"/>
				<path class="st14" d="M168.85,147.44c-1.23,3.15-2.83,6.21-4.53,9.14c0.97,0.58,1.94,1.16,2.91,1.73
					c0.79,0.47,1.58,0.94,2.42,1.34c3.05,1.45,6.61,1.79,9.88,0.96c3.27-0.83,6.28-3.08,8.27-5.81c-1.93-1.98-2.91-4.59-3.36-7.36
					H168.85z"/>
				<path class="st1" d="M225.13,169.81c-4.18,5.87-8.83,11.36-13.21,17.08c-3.72,4.86-8.9,9.99-12.17,15.76
					c-4.92-1.04-9.51-2.05-13.62-2.9c-16.88-3.49-39.17-1.21-56.94,2.03c0.06-2.1,0.24-4.26,0.59-6.59
					c1.52-9.91,5.41-19.43,10.85-27.8c-4.34-1.91-11.58-3.34-14.33-7.66c6.72,0.37,14.3-1.84,20.6-3.83
					c6.54-2.07,13.44-3.72,20.36-4.81v-0.01c2.69-0.42,5.39-0.77,8.06-1.02c3.2-0.3,6.39-0.51,9.56-0.6
					c6.37-0.17,12.7,0.18,19.08,1.27c8.65,1.48,18.27,1.56,26.34,5.33C230.53,160.8,227.71,166.18,225.13,169.81z"/>
			</g>
			<path class="st1" d="M184.99,104.06c-3.79,1.53-5.26,5.97-4.06,9.53c1.2,3.55,4.41,6.29,7.87,8.36
				c0.74-4.71,1.13-8.82,1.87-13.53c0.28-1.77,0.29-4.03-1.51-4.81C188.14,103.16,186.02,103.64,184.99,104.06z"/>
		</g>
		<path class="st14" d="M167.29,128.91c0,0.11,0,0.21,0.01,0.32c0,0.05,0,0.11,0.01,0.16c0,0.03,0,0.07,0.01,0.1
			c0.01,0.1,0.01,0.2,0.02,0.3c0,0.03,0.01,0.06,0.01,0.09c0.02,0.15,0.03,0.29,0.06,0.44c0.02,0.16,0.05,0.31,0.08,0.46
			c0.01,0.05,0.02,0.11,0.03,0.16c0.01,0.03,0.01,0.07,0.02,0.1c0.03,0.13,0.06,0.26,0.1,0.39c0.08,0.31,0.18,0.62,0.3,0.91
			c0.03,0.07,0.06,0.14,0.08,0.21c0.26,0.64,0.59,1.25,0.98,1.82c0.08,0.12,0.17,0.24,0.26,0.36c0.05,0.06,0.1,0.13,0.15,0.19
			c0.08,0.1,0.17,0.21,0.25,0.31c0.21,0.25,0.43,0.48,0.66,0.71c0.11,0.1,0.22,0.21,0.33,0.31c0.46,0.41,0.96,0.77,1.5,1.08
			c0.4,0.24,0.82,0.45,1.26,0.62c0.1,0.04,0.19,0.08,0.29,0.11c0.07,0.03,0.14,0.05,0.21,0.07c0.04,0.01,0.08,0.03,0.11,0.04
			c0.04,0.01,0.07,0.02,0.11,0.03c0.11,0.04,0.23,0.07,0.34,0.1c0.68,0.19,1.39,0.3,2.12,0.34c0.16,0.01,0.32,0.01,0.48,0.01
			c1.79,0,3.48-0.49,4.94-1.35c2.74-1.62,4.65-4.54,4.82-7.94l0.11-2.31l0.33-6.79l0.1-2.12l0.14-2.93
			c0.01-0.16,0.01-0.32,0.01-0.48c0-0.08,0-0.16,0-0.24c0-0.06,0-0.12-0.01-0.19c0-0.06-0.01-0.13-0.01-0.19c0-0.02,0-0.03,0-0.05
			c0-0.04,0-0.08-0.01-0.11c0-0.05-0.01-0.09-0.01-0.14c0-0.03,0-0.06-0.01-0.08c-0.01-0.07-0.01-0.13-0.02-0.2
			c-0.01-0.06-0.01-0.11-0.02-0.17c0-0.03-0.01-0.07-0.01-0.1c-0.02-0.13-0.04-0.26-0.07-0.39c-0.01-0.07-0.03-0.15-0.04-0.22
			c-0.01-0.07-0.03-0.13-0.05-0.2c-0.02-0.07-0.03-0.13-0.05-0.2c0,0,0,0,0-0.01c-0.02-0.07-0.04-0.13-0.05-0.19
			c-0.02-0.07-0.04-0.13-0.06-0.2c-0.02-0.06-0.04-0.13-0.06-0.19c-0.04-0.13-0.09-0.26-0.14-0.39c-0.01-0.02-0.02-0.05-0.03-0.07
			c-0.04-0.11-0.08-0.21-0.13-0.31c-0.01-0.02-0.02-0.05-0.03-0.07c-0.05-0.11-0.1-0.21-0.15-0.32c-0.01-0.02-0.02-0.03-0.02-0.05
			c-1.52-3.09-4.63-5.3-8.3-5.48c-4.13-0.2-7.8,2.22-9.4,5.79c-0.48,1.07-0.77,2.25-0.83,3.49l-0.69,14.15
			C167.3,128.58,167.29,128.75,167.29,128.91z"/>
		<path class="st15" d="M178.28,126.25c0,0.04,0.01,0.09,0.01,0.13c0,1.69-1.53,3.06-3.42,3.06c-1.89,0-3.42-1.37-3.42-3.06
			c0-0.04,0.01-0.09,0.01-0.13H178.28z"/>
		<path class="st1" d="M183.48,123.7c0,0,0-12.13,0-12.18c-0.01-0.14-8.45,0.71-9.36,0.61c-2.21-0.25-4.44-1.31-5.56-3.23
			c-4.93,2.61-11.06,1.39-16.39-0.26c-5.26-1.63-10.3-4.51-13.53-8.97c-3.23-4.46-4.34-10.66-1.91-15.61
			c2.66-5.42,9.54-8.34,15.28-6.49c1.47,0.47,2.88,1.24,3.92,2.38c1.19,1.31,1.82,3.03,2.5,4.66c1.09,2.61,2.39,5.13,3.88,7.53
			c0.66,1.06,1.37,2.11,2.33,2.89c2.2,1.78,5.3,1.88,8.11,1.55c2.81-0.33,5.65-1.02,8.43-0.51c3.95,0.73,7.28,4.07,7.99,8.02
			c0.33,1.82,0.14,3.7-0.05,5.54c-0.42,4.01-0.87,8.02-1.34,12.03C185.78,121.45,184.28,121.85,183.48,123.7z"/>
		<path class="st14" d="M192.57,124.25c-0.1,2.11-1.9,3.75-4.02,3.64c-2.11-0.1-3.75-1.9-3.64-4.02c0.1-2.11,1.9-3.75,4.02-3.64
			C191.04,120.34,192.67,122.14,192.57,124.25z"/>
		<path class="st1" d="M179.18,95.98l-4.83,12.13c-2.25,1.4-4.89,2.1-7.52,2.49c-13.92,2.06-28.05-4.27-38.5-13.71
			c-6.14-5.54-11.39-12.93-12.68-21.26c-1.27-8.18,1.84-17.63,9.92-21.07c6.12-2.61,13.47-0.5,18.57,3.75
			c5.11,4.26,8.35,10.32,10.98,16.42c1.02,2.36,1.96,4.74,3.11,7.04c2.02,4.02,4.7,7.8,8.3,10.5c2.08,1.57,4.5,2.76,7.04,3.37
			c1.11,0.27,2.25,0.43,3.39,0.45C177.7,96.11,178.44,96.07,179.18,95.98z"/>
		<path class="st1" d="M186.88,105.31c-0.45-5.18,5.25-11.45,8.52-14.62c5.41-5.24,11.9-10.15,19.22-12.3
			c4.24-1.24,7.47-0.73,10.86,2.07c8.72,7.2,5.28,16.92,1.65,26.35c3.13-1.76,5.37-5.24,8.2-7.57c6.17-5.06,15.21-14.96,24.22-12.39
			c12.65,3.61,0.49,21.75-3.56,27.59c-4.43,6.4-9.37,12.58-15.5,17.44c-5.38,4.26-15.21,10.8-22.32,7.48
			c-2.61-1.22-4.4-3.83-5.05-6.63c-1.31-5.57,1.88-10.3,2.51-15.67c-2.76,3.24-6.87,6.52-11.85,5.26
			c-5.59-1.42-4.03-8.16-3.43-12.23c-1.33,0.35-2.49,1.81-3.93,2.41c-4.84,1.99-10.76,2.2-12.04-3.69"/>
		<g>
			<path class="st16" d="M197.17,107.2l-8.94,11.02l-2.3-1.79l8.94-11.02c3.41-4.22,2.69-10.36-1.62-13.7
				c-4.32-3.34-10.6-2.63-14.02,1.58l-2.27,2.8c-1.14-0.02-2.28-0.18-3.39-0.45l3.35-4.14c4.43-5.45,12.57-6.37,18.15-2.05
				C200.66,93.78,201.6,101.74,197.17,107.2z"/>
		</g>
		<g>
			<g>
				<g>
					<path class="st14" d="M72.93,70.57c-1.88,0.01-2.36,9.49-2.36,9.49s-10.82-15.15-12.9-13.85c-0.08,0.05-0.14,0.13-0.19,0.21
						c0.08,0.63,0.15,1.26,0.2,1.9c1.38,3.67,6.72,10.59,6.72,10.59s-1.97-2.24-4.34-4.58c0.6,2.19,0.84,4.45,0.84,6.74
						c0.31,0.29,0.49,0.46,0.49,0.46s-0.18-0.16-0.49-0.42c0,3.33-0.51,6.72-1.15,10.03c4.38,3.91,9.71,9.41,9.71,9.41l8-2
						C77.46,98.56,76.11,70.55,72.93,70.57z"/>
				</g>
				<path class="st14" d="M57.65,79.74c-1.34,0-2.46,1.22-2.76,2.57c-0.29,1.35,0.09,2.76,0.65,4.02c1.27,2.81,3.5,5.15,6.21,6.49
					C63.6,93.73,66,94.1,67.5,92.7c1.27-1.18,1.41-3.17,1.29-4.94c-0.28-4.21-1.77-12.21-5.94-14.34
					C59.28,71.59,53.67,76.87,57.65,79.74z"/>
			</g>
			<path class="st1" d="M51.71,59.31c-0.81,4.71-0.23,6.51,2.78,10.21c2.19,2.7,5.16,4.65,7.5,7.22c2.34,2.57,4.06,6.2,2.94,9.48
				h6.04V59.29L51.71,59.31z"/>
			<path class="st17" d="M62.84,63.81h-8c-0.48,0-0.88-0.39-0.88-0.88l0,0c0-0.48,0.39-0.88,0.88-0.88h8c0.48,0,0.88,0.39,0.88,0.88
				l0,0C63.71,63.41,63.32,63.81,62.84,63.81z"/>
		</g>
		<g>
			<path class="st1" d="M272.18,49.9c-0.88,4.31-0.41,5.98,2.25,9.48c1.94,2.55,4.61,4.44,6.69,6.87c2.08,2.43,3.55,5.82,2.42,8.82
				l5.56,0.18l0.81-24.8L272.18,49.9z"/>
			<path class="st18" d="M282.29,54.37l-7.36-0.24c-0.44-0.01-0.79-0.39-0.78-0.83l0,0c0.01-0.44,0.39-0.79,0.83-0.78l7.36,0.24
				c0.44,0.01,0.79,0.39,0.78,0.83l0,0C283.1,54.04,282.73,54.39,282.29,54.37z"/>
			<g>
				<g>
					<path class="st14" d="M291.5,65.34c-1.71-0.27-3.56,8.27-3.56,8.27s-7.34-13.92-9.54-14.41c-0.14-0.03-0.41-0.02-0.47,0.05
						c-0.41,0.33-0.05,1.02,0.16,1.84c1.17,3.8,4.42,10.55,4.42,10.55s-1.45-2.33-3.26-4.81c0.22,2.08,0.1,4.17-0.24,6.25
						c0.24,0.31,0.38,0.49,0.38,0.49s-0.14-0.17-0.39-0.46c-0.5,3.03-1.47,6.03-2.54,8.94c3.39,4.2,2.83,10.14,2.83,10.14
						l10.64,2.63C289.92,94.83,294.39,65.79,291.5,65.34z"/>
				</g>
				<path class="st14" d="M276.25,71.38c-1.22-0.2-2.42,0.74-2.89,1.93c-0.47,1.18-0.33,2.52-0.01,3.75
					c0.73,2.74,2.41,5.2,4.67,6.83c1.53,1.1,3.66,1.8,5.23,0.75c1.33-0.89,1.76-2.67,1.91-4.29c0.37-3.86,0.21-11.36-3.25-13.92
					C278.94,64.22,273.05,68.18,276.25,71.38z"/>
			</g>
		</g>
		<path class="st16" d="M189.29,119.69c0.72-0.92,0.9-2.23,0.46-3.31c-0.43-1.08-1.47-1.9-2.63-2.07h-20.49
			c-3.89,0-6.57,4.19-4.65,7.58c0.1,0.18,0.21,0.35,0.33,0.52c1.66,2.36,5.02,3.49,7.64,2.28c1.2-0.55,2.25-1.55,3.57-1.65
			c1.79-0.14,3.23,1.39,4.93,1.99c1.83,0.65,3.91,0.14,5.57-0.87C185.67,123.14,188.1,121.22,189.29,119.69z"/>
		<path class="st13" d="M165.82,121.18h14.34c1.15,0,2.08-0.94,2.08-2.08l0,0c0-1.15-0.94-2.08-2.08-2.08h-14.34
			c-1.15,0-2.08,0.94-2.08,2.08l0,0C163.74,120.24,164.67,121.18,165.82,121.18z"/>
		<ellipse class="st13" cx="190.79" cy="122.01" rx="7.08" ry="8.21"/>
		<path class="st16" d="M197.25,121.81c0,2.87-2.01,5.2-4.49,5.2c-2.48,0-4.49-2.33-4.49-5.2c0-2.87,2.01-5.2,4.49-5.2
			C195.24,116.61,197.25,118.94,197.25,121.81z"/>
		<path class="st1" d="M76.13,95.23l19.82,59.14l63.34,6.31c0.29,0.03,0.62,0.07,0.91,0.12c7.76,1.28,13.01,8.61,11.72,16.37
			c-1.28,7.76-8.61,13.01-16.37,11.72l-69.97-11.57l-1.47-0.24c-4.4-0.73-7.99-4.26-8.6-8.91L66.29,97.5
			c-0.31-2.36,1.08-4.69,3.42-5.47C72.37,91.14,75.24,92.57,76.13,95.23z"/>
		<path class="st14" d="M76.13,95.23l10.67,31.82c-5.14,2.18-10.53,3.75-16.04,4.68L66.29,97.5c-0.31-2.36,1.08-4.69,3.42-5.47
			C72.37,91.14,75.24,92.57,76.13,95.23z"/>
		<path class="st1" d="M280.9,87.23l-19.82,59.14l-63.34,6.31c-0.29,0.03-0.62,0.07-0.91,0.12c-7.76,1.28-13.01,8.61-11.72,16.37
			c1.28,7.76,8.61,13.01,16.37,11.72l69.97-11.57l1.47-0.24c4.4-0.73,7.99-4.26,8.6-8.91l9.23-70.66c0.31-2.36-1.08-4.69-3.42-5.47
			C284.67,83.14,281.79,84.57,280.9,87.23z"/>
		<path class="st14" d="M280.9,87.23l-10.67,31.82c5.14,2.18,10.53,3.75,16.04,4.68l4.47-34.23c0.31-2.36-1.08-4.69-3.42-5.47
			C284.67,83.14,281.79,84.57,280.9,87.23z"/>
		<path class="st19" d="M254.88,92.06c-5.71,1.46-10.98,6.9-15,11"/>
		<path class="st19" d="M120.88,64.56c-0.85,7.52,0.07,13.35,4.25,20"/>
		<path class="st19" d="M129.13,91.06c1.94,2.06,3.66,3.34,6.25,4.75"/>
		<path class="st19" d="M217.38,82.31c-4.63-0.31-7.77,2.29-11.5,4.75"/>
	</g>
	<polygon class="st12" points="178.93,244.23 182.52,250.79 189.08,254.38 182.52,257.97 178.93,264.54 175.34,257.97 
		168.77,254.38 175.34,250.79 	"/>
	<polygon class="st11" points="213.81,222.79 220.36,234.77 232.34,241.32 220.36,247.87 213.81,259.85 207.26,247.87 
		195.28,241.32 207.26,234.77 	"/>
	<path class="st20" d="M162.34,156.79c-7.66,3.3-14.56,8.34-20.67,14"/>
	<polygon class="st11" points="91.01,44.24 86.34,36.79 81.67,29.34 90.46,29.02 99.25,28.71 95.13,36.48 	"/>
	<polygon class="st12" points="324.71,204.64 322.75,213.21 320.78,221.78 314.34,215.79 307.9,209.8 316.31,207.22 	"/>
	<polygon class="st12" points="125.85,20.36 129.37,26.79 135.8,30.31 129.37,33.82 125.85,40.25 122.34,33.82 115.91,30.31 
		122.34,26.79 	"/>
	<polygon class="st12" points="83.85,226.36 87.37,232.79 93.8,236.31 87.37,239.82 83.85,246.25 80.34,239.82 73.91,236.31 
		80.34,232.79 	"/>
	<polygon class="st0" points="136.1,214.7 138.34,218.79 142.43,221.03 138.34,223.26 136.1,227.35 133.87,223.26 129.78,221.03 
		133.87,218.79 	"/>
	<polygon class="st0" points="332.57,175.7 334.81,179.79 338.9,182.03 334.81,184.26 332.57,188.35 330.34,184.26 326.25,182.03 
		330.34,179.79 	"/>
	<polygon class="st0" points="328.57,34.7 330.81,38.79 334.9,41.03 330.81,43.26 328.57,47.35 326.34,43.26 322.25,41.03 
		326.34,38.79 	"/>
	<polygon class="st11" points="301.66,18.31 305.02,24.44 311.15,27.79 305.02,31.15 301.66,37.28 298.31,31.15 292.18,27.79 
		298.31,24.44 	"/>
	<circle class="st1" cx="277.84" cy="230.29" r="3.5"/>
	<circle class="st1" cx="348.34" cy="148.79" r="3"/>
	<circle class="st1" cx="166.84" cy="24.29" r="2.5"/>
	<circle class="st1" cx="99.34" cy="99.79" r="3"/>
	<circle class="st1" cx="355.34" cy="237.79" r="2"/>
</g>
</svg>
