<?xml version="1.0" encoding="utf-8"?>
<!-- Generator: Adobe Illustrator 25.4.1, SVG Export Plug-In . SVG Version: 6.00 Build 0)  -->
<svg version="1.1" xmlns="http://www.w3.org/2000/svg" xmlns:xlink="http://www.w3.org/1999/xlink" x="0px" y="0px"
	 viewBox="0 0 374.83 393.5" style="enable-background:new 0 0 374.83 393.5;" xml:space="preserve">
<style type="text/css">
	.st0{fill:#58DAE2;}
	.st1{fill:#2F130C;}
	.st2{fill:none;stroke:#6E6BF7;stroke-width:2.4716;stroke-miterlimit:10;}
	.st3{fill:#2D2B6B;}
	.st4{fill:none;stroke:#50549F;stroke-width:7;stroke-miterlimit:10;}
	.st5{fill:#9B110B;}
	.st6{fill:#FF5B3D;}
	.st7{fill:#FF7D2C;}
	.st8{fill:none;stroke:#716EFF;stroke-width:1.6478;stroke-miterlimit:10;}
	.st9{fill:#6865E8;}
	.st10{fill:none;stroke:#6E6BF7;stroke-width:1.1005;stroke-miterlimit:10;}
	.st11{fill:#FFA3D8;}
	.st12{fill:#FFCA5F;}
	.st13{fill:#3E4184;}
	.st14{fill:#BA301D;}
	.st15{fill:#FFFFFF;}
	.st16{fill:#716EFD;}
	.st17{fill:none;stroke:#FFF7F2;stroke-width:0.75;stroke-miterlimit:10;}
	.st18{fill:none;stroke:#FFF7F2;stroke-width:0.6907;stroke-miterlimit:10;}
	.st19{fill:none;stroke:#F2D4C5;stroke-width:1.0301;stroke-linecap:round;stroke-linejoin:round;stroke-miterlimit:10;}
	.st20{fill:none;stroke:#F2D4C5;stroke-width:2;stroke-linecap:round;stroke-linejoin:round;stroke-miterlimit:10;}
	.st21{fill:none;stroke:#3E4184;stroke-width:2.614;stroke-miterlimit:10;}
	.st22{fill:#5055B3;}
	.st23{fill:none;stroke:#2D2B6B;stroke-width:5.2279;stroke-miterlimit:10;}
	.st24{fill:none;stroke:#716EFD;stroke-width:2.614;stroke-miterlimit:10;}
	.st25{fill:none;stroke:#716EFD;stroke-width:0.8713;stroke-linejoin:round;stroke-miterlimit:10;}
	.st26{fill:none;stroke:#716EFD;stroke-width:2.614;stroke-linecap:round;stroke-linejoin:round;stroke-miterlimit:10;}
	.st27{fill:#F2D4C5;}
	.st28{fill:#FF8772;}
	.st29{opacity:0.47;fill:#2D2B6B;}
	.st30{fill:#2D1A14;}
	.st31{fill:#FFF7F2;}
	.st32{fill:none;stroke:#F2D4C5;stroke-width:1.148;stroke-linecap:round;stroke-linejoin:round;stroke-miterlimit:10;}
	.st33{fill:none;stroke:#FFF7F2;stroke-width:0.8358;stroke-miterlimit:10;}
	.st34{fill:none;stroke:#2F130C;stroke-width:1.1144;stroke-miterlimit:10;}
	.st35{fill:none;stroke:#716EFD;stroke-width:2.2289;stroke-linecap:round;stroke-linejoin:round;stroke-miterlimit:10;}
</style>
<g id="BACKGROUND">
</g>
<g id="OBJECT">
	<path class="st0" d="M116.63,161.41l39.92,27.64c0.37,0.26,0.58,0.7,0.53,1.15l8.42,52.28c-0.04,0.39-0.26,0.74-0.6,0.95
		l-47.66,24.19c-1.24,0.75-2.55-0.87-1.55-1.92l17.44-18.49c0.68-0.72,0.29-1.91-0.69-2.08l-43.69-7.7
		c-1.31-0.23-1.4-2.08-0.11-2.43l39.11-10.71c1.03-0.28,1.25-1.65,0.36-2.24L70,183.77c-1.2-0.79-0.33-2.66,1.05-2.23l61.77,19.01
		c1.07,0.33,2-0.81,1.46-1.79l-19.46-35.72C114.19,161.88,115.55,160.67,116.63,161.41z"/>
	<path class="st12" d="M318.3,294.93l-48.41,3.71c-0.45,0.03-0.88-0.18-1.13-0.55l-39.49-35.28c-0.22-0.33-0.27-0.74-0.13-1.11
		l21.76-48.82c0.49-1.37,2.53-0.93,2.42,0.51l-1.89,25.35c-0.07,0.99,0.98,1.66,1.85,1.18l38.77-21.56c1.16-0.65,2.4,0.73,1.62,1.82
		l-23.61,32.96c-0.62,0.87,0.07,2.07,1.14,1.97l69.22-6.92c1.44-0.14,1.93,1.86,0.59,2.4l-59.93,24.17
		c-1.04,0.42-1.04,1.89-0.01,2.31l37.62,15.47C319.89,293.03,319.61,294.83,318.3,294.93z"/>
	<g>
		<path class="st16" d="M180.82,120.68c-2.54-5.52-1.54-12.28,1.76-17.39c3.29-5.11,8.61-8.67,14.32-10.75
			c12.49-4.54,27.79-1.71,36.67,8.18s9.59,26.65,0.42,36.27L180.82,120.68z"/>
		<g>
			<path class="st27" d="M79.58,349.13L79.58,349.13c-1.74-0.75-2.54-2.79-1.79-4.53l18.28-42.12c0.75-1.74,2.79-2.54,4.53-1.79l0,0
				c1.74,0.75,2.54,2.79,1.79,4.53l-18.28,42.12C83.35,349.08,81.31,349.89,79.58,349.13z"/>
			<g>
				<g>
					<g>
						<g>
							<rect x="160.5" y="214.82" class="st1" width="78.34" height="74.04"/>
							<path class="st28" d="M190.33,92.16c0.65,3.48,1.02,7.02,1.12,10.56c0.15,5.3-0.52,11.09-4.16,14.89
								c2.25,3.15,5.67,5.74,9.38,6.71c3.71,0.96,7.75,0.57,11.21-1.1c0.94-0.46,1.84-1,2.74-1.55c1.1-0.67,2.2-1.34,3.3-2
								c-4.77-8.37-8.86-17.64-7.58-27.23c-2.38-0.45-5.76-1.47-8.14-1.93c-1.03-0.2-2.08-0.39-3.13-0.35
								C193.42,90.24,191.98,92.45,190.33,92.16z"/>
							<path class="st28" d="M208.79,109.11c1.4,3.64,3.21,7.17,5.14,10.56c-1.1,0.67-2.2,1.34-3.3,2c-0.9,0.54-1.8,1.09-2.74,1.55
								c-3.46,1.67-7.5,2.07-11.21,1.1c-3.71-0.96-7.13-3.55-9.38-6.71c2.19-2.29,3.3-5.31,3.81-8.5H208.79z"/>
							<path class="st16" d="M189.44,115.18c-16.38-0.14-32.45,5.03-47.69,11.05c0.59,37.02,17.74,72.41,18.86,110.49
								c0,0,46.06,13.93,78.01-0.19c0,0,0.93-73.37,3.16-83.77c0,0,5.2-17.09,5.57-18.02C247.35,134.74,245.39,115.67,189.44,115.18
								z"/>
							<path class="st29" d="M230.89,121.02c-3.2,1.19-6.27,2.67-9.1,4.63c-7.71,5.34-12.04,13.74-13.95,22.76
								c-3.28,15.52,0.29,32.07-4.74,47.29c-2.87,8.67-9.39,14.55-17.39,18.54c-8.46,4.21-17.9,6.51-25.8,11.83
								c0.36,3.53,0.61,7.08,0.71,10.65c0,0,46.06,13.93,78.01-0.19c0,0,0.93-73.37,3.16-83.77c0,0,5.2-17.09,5.57-18.02
								C247.35,134.75,246.53,126.79,230.89,121.02z"/>
						</g>
						<g>
							<path class="st30" d="M196.28,76.68c3.38,0.74,5.24,4.3,4.76,7.49c-0.48,3.19-2.77,5.98-5.35,8.24
								c-1.3-3.89-2.21-7.31-3.51-11.2c-0.49-1.46-0.82-3.37,0.57-4.3C193.53,76.38,195.37,76.48,196.28,76.68z"/>
							<path class="st28" d="M212.27,94.3c0,0.19-0.01,0.38-0.01,0.57c-0.01,0.12-0.01,0.25-0.02,0.37c0,0.06-0.01,0.13-0.01,0.19
								c-0.01,0.04-0.01,0.07-0.01,0.11c-0.01,0.12-0.03,0.24-0.04,0.36l-0.02,0.1c-0.02,0.17-0.05,0.34-0.08,0.51
								c-0.03,0.18-0.07,0.36-0.11,0.53c-0.01,0.06-0.03,0.13-0.05,0.19c-0.01,0.03-0.02,0.07-0.03,0.11
								c-0.04,0.15-0.08,0.3-0.13,0.45c-0.11,0.36-0.24,0.7-0.38,1.04c-0.03,0.08-0.07,0.17-0.11,0.25
								c-0.33,0.73-0.73,1.42-1.19,2.06c-0.1,0.14-0.21,0.27-0.31,0.41c-0.06,0.07-0.11,0.14-0.18,0.21c-0.1,0.11-0.2,0.23-0.3,0.34
								c-0.25,0.28-0.52,0.54-0.79,0.79c-0.13,0.11-0.26,0.23-0.39,0.34c-0.31,0.25-0.63,0.49-0.97,0.71
								c-0.25,0.17-0.52,0.32-0.79,0.47c-0.47,0.26-0.96,0.48-1.47,0.67c-0.11,0.04-0.22,0.08-0.33,0.11
								c-0.08,0.03-0.16,0.05-0.24,0.08c-0.04,0.01-0.09,0.02-0.13,0.04c-0.04,0.01-0.08,0.02-0.12,0.03
								c-0.13,0.04-0.26,0.07-0.4,0.1c-0.78,0.19-1.6,0.29-2.43,0.3c-0.18,0-0.37,0-0.55-0.01c-2.04-0.09-3.94-0.73-5.56-1.8
								c-1.6-1.05-2.93-2.51-3.83-4.24c-0.82-1.56-1.28-3.32-1.3-5.2l-0.02-2.68l-0.07-7.88v-0.01l-0.02-2.47l-0.03-3.4
								c0-0.18,0-0.37,0.01-0.56c0-0.09,0.01-0.18,0.01-0.28c0.01-0.07,0.01-0.14,0.02-0.21c0.01-0.07,0.01-0.15,0.02-0.22
								c0.01-0.02,0.01-0.03,0.01-0.05c0.01-0.05,0.01-0.09,0.02-0.13c0.01-0.06,0.01-0.11,0.02-0.16c0.01-0.03,0.01-0.06,0.02-0.1
								c0.01-0.07,0.02-0.15,0.03-0.23c0.01-0.07,0.02-0.13,0.03-0.2c0.01-0.04,0.01-0.08,0.02-0.11c0.03-0.15,0.06-0.3,0.1-0.45
								c0.02-0.08,0.04-0.17,0.06-0.25c0.02-0.08,0.04-0.15,0.06-0.23c0.02-0.07,0.05-0.15,0.06-0.23c0.01,0,0.01,0,0.01-0.01
								c0.02-0.07,0.05-0.15,0.07-0.22c0.02-0.07,0.05-0.15,0.07-0.22c0.03-0.07,0.05-0.14,0.08-0.22c0.18-0.48,0.39-0.94,0.63-1.39
								c0.1-0.18,0.2-0.37,0.31-0.55c0.04-0.07,0.08-0.14,0.13-0.21c0.11-0.18,0.24-0.36,0.36-0.54c0.02-0.02,0.04-0.05,0.06-0.07
								c0.09-0.13,0.19-0.26,0.3-0.39c0.06-0.07,0.13-0.15,0.19-0.23c0.01-0.01,0.01-0.02,0.02-0.02c2.01-2.4,5.01-3.93,8.34-3.97
								c4.12-0.03,7.75,2.24,9.71,5.62c0.29,0.49,0.53,1,0.74,1.53c0.5,1.26,0.78,2.65,0.79,4.09L212.27,94.3z"/>
							<path class="st28" d="M183.8,87.93c0.02,2.41,1.96,4.35,4.33,4.33c2.37-0.02,4.27-1.99,4.25-4.41
								c-0.02-2.41-1.96-4.35-4.33-4.33C185.68,83.55,183.78,85.52,183.8,87.93z"/>
							<path class="st1" d="M212.26,94.86c-0.01,0.12-0.01,0.25-0.02,0.37c0,0.06-0.01,0.13-0.01,0.19
								c-0.01,0.04-0.01,0.07-0.01,0.11c-0.01,0.12-0.03,0.24-0.04,0.36l-0.02,0.1c-0.02,0.17-0.05,0.34-0.08,0.51
								c-0.03,0.18-0.07,0.36-0.11,0.53c-0.01,0.06-0.03,0.13-0.05,0.19c-0.01,0.03-0.02,0.07-0.03,0.11
								c-0.04,0.15-0.08,0.3-0.13,0.45c-0.11,0.36-0.24,0.7-0.38,1.04c-0.03,0.08-0.07,0.17-0.11,0.25
								c-0.33,0.73-0.73,1.42-1.19,2.06c-0.1,0.14-0.21,0.27-0.31,0.41c-0.06,0.07-0.11,0.14-0.18,0.21c-0.1,0.11-0.2,0.23-0.3,0.34
								c-0.25,0.28-0.52,0.54-0.79,0.79c-0.13,0.11-0.26,0.23-0.39,0.34c-0.31,0.25-0.63,0.49-0.97,0.71
								c-0.25,0.17-0.52,0.32-0.79,0.47c-0.47,0.26-0.96,0.48-1.47,0.67c-0.11,0.04-0.22,0.08-0.33,0.11
								c-0.08,0.03-0.16,0.05-0.24,0.08c-0.04,0.01-0.09,0.02-0.13,0.04c-0.04,0.01-0.08,0.02-0.12,0.03
								c-0.13,0.04-0.26,0.07-0.4,0.1c-0.78,0.19-1.6,0.29-2.43,0.3c-0.18,0-0.37,0-0.55-0.01c-2.04-0.09-3.94-0.73-5.56-1.8
								c-1.6-1.05-2.93-2.51-3.83-4.24c-0.82-1.56-1.28-3.32-1.3-5.2l-0.02-2.68l-0.07-7.88v-0.01l-0.02-2.47l-0.03-3.4
								c0-0.18,0-0.37,0.01-0.56c0-0.09,0.01-0.18,0.01-0.28c0.01-0.07,0.01-0.14,0.02-0.21c0.01-0.07,0.01-0.15,0.02-0.22
								c0.01-0.02,0.01-0.03,0.01-0.05c0.01-0.05,0.01-0.09,0.02-0.13c0.01-0.06,0.01-0.11,0.02-0.16c0.01-0.03,0.01-0.06,0.02-0.1
								c0.01-0.07,0.02-0.15,0.03-0.23c0.01-0.07,0.02-0.13,0.03-0.2c0.01-0.04,0.01-0.08,0.02-0.11c0.03-0.15,0.06-0.3,0.1-0.45
								c0.02-0.08,0.04-0.17,0.06-0.25c0.02-0.08,0.04-0.15,0.06-0.23c0.02-0.07,0.05-0.15,0.06-0.23c0.01,0,0.01,0,0.01-0.01
								c0.02-0.07,0.05-0.15,0.07-0.22c0.02-0.07,0.05-0.15,0.07-0.22c0.03-0.07,0.05-0.14,0.08-0.22c0.18-0.48,0.39-0.94,0.63-1.39
								c0.1-0.18,0.2-0.37,0.31-0.55c0.04-0.07,0.08-0.14,0.13-0.21c0.11-0.18,0.24-0.36,0.36-0.54c0.02-0.02,0.04-0.05,0.06-0.07
								c0.09-0.13,0.19-0.26,0.3-0.39c0.06-0.07,0.13-0.15,0.19-0.23c0.01-0.01,0.01-0.02,0.02-0.02l0.02,2.11l0.02,2.13l0.02,2.19
								l0.05,5.65l0.01,0.64c0,0.16,0.03,0.3,0.07,0.44c0.1,0.03,0.19,0.06,0.29,0.09c1.45,0.48,2.74,1.49,3.67,2.74
								c0.71,0.97,1.22,2.07,1.57,3.22c0.09,0.25,0.15,0.51,0.22,0.77c0.05,0.21,0.1,0.41,0.14,0.62c0.15-0.06,0.31-0.17,0.45-0.32
								c0.05-0.05,0.1-0.1,0.14-0.15c1.85-1.81,5.49-3.07,7.84-2.5c2.58,0.63,4.63,3.42,5.07,6.28
								C212.14,94.64,212.19,94.76,212.26,94.86z"/>
						</g>
					</g>
				</g>
			</g>
			<path class="st16" d="M74.79,65.99l33.89,60.69l70.67-6.13c0.32-0.03,0.69-0.05,1.02-0.06c8.76-0.19,16.02,6.75,16.21,15.52
				c0.19,8.76-6.76,16.02-15.52,16.21l-79.02,1.73l-1.65,0.04c-4.97,0.1-9.63-3.02-11.25-7.99L64.48,70.5
				c-0.82-2.52,0.22-5.35,2.62-6.7C69.83,62.28,73.27,63.26,74.79,65.99z"/>
			<path class="st28" d="M74.79,65.99l18.23,32.65c-5.18,3.45-10.76,6.27-16.6,8.43L64.48,70.5c-0.82-2.52,0.22-5.35,2.62-6.7
				C69.83,62.28,73.27,63.26,74.79,65.99z"/>
			<path class="st31" d="M204.56,94.74c1.6,0,2.9-1.3,2.9-2.9h-5.8C201.66,93.44,202.96,94.74,204.56,94.74z"/>
			<path class="st27" d="M97.16,309.41l-14.54,37.93c0,0,27.19-7.59,43.62-31.61L97.16,309.41z"/>
			<path class="st1" d="M269.11,310.05H95.51c-10.72,0-19.49-8.77-19.49-19.49v-1.15c0-10.72,8.77-19.49,19.49-19.49h173.6
				c10.72,0,19.49,8.77,19.49,19.49v1.15C288.6,301.27,279.83,310.05,269.11,310.05z"/>
			<g>
				<g>
					<path class="st28" d="M70.96,44.7c-1.86,0.01-2.34,9.38-2.34,9.38s-10.7-14.98-12.76-13.69c-0.08,0.05-0.14,0.13-0.19,0.21
						c0.08,0.62,0.14,1.25,0.19,1.88c1.36,3.63,6.65,10.47,6.65,10.47s-1.94-2.22-4.29-4.53c0.59,2.16,0.83,4.4,0.84,6.67
						c0.31,0.29,0.49,0.45,0.49,0.45s-0.18-0.16-0.49-0.42c0,3.29-0.51,6.65-1.14,9.92c4.33,3.86,11.02,9.38,11.02,9.38l4.95-9.79
						C73.9,64.63,74.1,44.68,70.96,44.7z"/>
				</g>
				<path class="st28" d="M55.85,53.76c-1.33,0-2.44,1.21-2.72,2.54c-0.29,1.33,0.09,2.73,0.65,3.97c1.25,2.78,3.46,5.09,6.14,6.42
					c1.81,0.9,4.19,1.27,5.67-0.11c1.26-1.17,1.4-3.14,1.28-4.88c-0.28-4.16-1.75-12.07-5.87-14.18
					C57.46,45.7,51.91,50.93,55.85,53.76z"/>
			</g>
			<path class="st1" d="M95.51,310.05l126.01,21.18l-1.15-22.96l-84.95-29.85C135.43,278.42,90.04,279.69,95.51,310.05z"/>
			<path class="st27" d="M207.75,308.26v21.81l13.78,1.15c0,0,0,25.26,19.52,33.29V316.3L207.75,308.26z"/>
			<path class="st27" d="M242.19,369.11L242.19,369.11c-1.89,0-3.44-1.55-3.44-3.44v-45.92c0-1.89,1.55-3.44,3.44-3.44l0,0
				c1.89,0,3.44,1.55,3.44,3.44v45.92C245.63,367.56,244.08,369.11,242.19,369.11z"/>
			<polyline class="st32" points="133.76,278.42 170.56,292.6 196.32,302.52 			"/>
			<line class="st32" x1="196.85" y1="285.88" x2="165.28" y2="290.47"/>
			<path class="st16" d="M246.41,131.82l35.6,77.08l-20.94-4.91l62.07-38.91c1.24-0.78,2.87-0.4,3.65,0.84
				c0.63,1.01,0.5,2.29-0.25,3.15l-48.14,55.22c-4.39,5.04-12.04,5.57-17.08,1.17c-1.51-1.31-2.61-2.92-3.3-4.66l-0.56-1.43
				l-30.98-79.05c-2.18-5.57,0.56-11.86,6.13-14.04C237.98,124.18,244.02,126.67,246.41,131.82z"/>
			<path class="st28" d="M326.79,165.91c-0.78-1.24-2.41-1.61-3.65-0.84l-34.63,21.71c1.38,6.39,3.4,12.63,6.68,18.23l31.34-35.96
				C327.29,168.2,327.43,166.92,326.79,165.91z"/>
			<g>
				<g>
					<path class="st28" d="M314.09,155.54c1.56-0.04,2.22,7.8,2.22,7.8s8.55-12.85,10.31-11.83c0.07,0.04,0.12,0.1,0.17,0.17
						c-0.05,0.53-0.09,1.05-0.11,1.58c-1.04,3.08-5.28,8.96-5.28,8.96s1.57-1.91,3.47-3.92c-0.44,1.83-0.58,3.71-0.52,5.61
						c-0.25,0.25-0.4,0.39-0.4,0.39s0.15-0.14,0.4-0.36c0.09,2.76,0.61,5.56,1.23,8.28c-3.52,3.36-8.98,8.17-8.98,8.17l-4.42-8.07
						C312.18,172.32,311.46,155.61,314.09,155.54z"/>
				</g>
				<path class="st28" d="M327.01,162.71c1.11-0.03,2.08,0.95,2.35,2.06c0.28,1.11,0,2.29-0.43,3.35c-0.97,2.36-2.76,4.36-4.97,5.55
					c-1.49,0.8-3.47,1.18-4.76,0.06c-1.09-0.95-1.26-2.59-1.21-4.06c0.12-3.49,1.13-10.16,4.53-12.05
					C325.43,156.01,330.23,160.23,327.01,162.71z"/>
			</g>
			<path class="st32" d="M90.73,276.76c-3.72,2.1-6.42,5.91-7.16,10.11"/>
		</g>
		<path class="st1" d="M47.59,32.5c-0.9,5.25-0.26,7.25,3.1,11.38c2.44,3.01,5.75,5.19,8.36,8.05c2.61,2.86,4.53,6.9,3.27,10.57
			h6.73V32.48L47.59,32.5z"/>
		<path class="st33" d="M59.99,37.51h-8.92c-0.54,0-0.98-0.44-0.98-0.98l0,0c0-0.54,0.44-0.98,0.98-0.98h8.92
			c0.54,0,0.98,0.44,0.98,0.98l0,0C60.96,37.07,60.52,37.51,59.99,37.51z"/>
		<path class="st1" d="M335.41,138.74c0.9,5.25,0.26,7.25-3.1,11.38c-2.44,3.01-5.75,5.19-8.36,8.05c-2.61,2.86-4.53,6.9-3.27,10.57
			h-6.73v-30.02L335.41,138.74z"/>
		<path class="st16" d="M191.56,103.19c-0.1-1-10.71,6.34-10.37,12.4c0.34,6.06,4.64,11.41,10,14.26
			c5.45,2.89,12.06,3.49,17.95,1.65s10.96-6.13,13.78-11.62c2.12,0.51,4.76,0.71,6.89,1.22c-5.82-7.4-13.21-13.76-21.66-17.92
			c-0.52,0.42-0.9,0.75-1.36,0.99c1.05,2.75,2.15,5.32,3.2,8.07c-2.44,2.73-6.26,3.02-9.92,3.01c-3.66-0.01-6.42-1.3-8.85-4.04
			C191.21,111.2,192.14,109.09,191.56,103.19z"/>
		<path class="st32" d="M152.13,130.94c4.35-2.99,9.25-5.17,14.38-6.4"/>
		<path class="st32" d="M234,130.13c4.88,0.57,9.23,4.34,10.49,9.09"/>
		<path class="st34" d="M215.34,103.53c-1.29,5.71-6.15,10.44-11.88,11.58c-5.74,1.14-12.04-1.36-15.42-6.13"/>
		<path class="st32" d="M203.52,123.04L203.52,123.04c-1.12,0-2.04-0.92-2.04-2.04v-0.19c0-1.12,0.92-2.04,2.04-2.04l0,0
			c1.12,0,2.04,0.92,2.04,2.04V121C205.56,122.12,204.64,123.04,203.52,123.04z"/>
		<path class="st32" d="M194.23,123.23L194.23,123.23c-1.12,0-2.04-0.92-2.04-2.04V121c0-1.12,0.92-2.04,2.04-2.04l0,0
			c1.12,0,2.04,0.92,2.04,2.04v0.19C196.27,122.31,195.35,123.23,194.23,123.23z"/>
		<path class="st35" d="M227.29,351.5c0,0,9.47-2.23,1.67-36.22"/>
		<path class="st35" d="M100.25,338.13c0,0-5.57-13.93,1.11-26.19"/>
		<path class="st1" d="M193.44,78.47c2.65-0.71,4.57-4.63,4.46-7.24c0.31,2.03,4.53,3.21,6.24,3.7c2.74,0.78,5.19,0,7.55-1.33
			c4.78,3.6,13.33,0.21,17.26-3.22c6.87-5.99,3.51-18.72-6.53-17.65c-5.41,0.58-7.74,5.75-11.41,9.02
			c-2.95,2.64-6.43,3.09-10.24,2.68c-2.73-0.29-5.99-1.52-8.65-0.51c-2.67,1.01-4.75,2.94-5.12,5.74c-0.41,3.19,0.08,4.81,2.54,6.99
			"/>
		<g>
			<path class="st16" d="M189.59,82.92V66.58c0-6.25,5.08-11.33,11.33-11.33c6.25,0,11.33,5.08,11.33,11.33v16.35h3.34V66.58
				c0-8.09-6.58-14.67-14.67-14.67c-8.09,0-14.67,6.58-14.67,14.67v16.35H189.59z"/>
		</g>
		<g>
			<path class="st1" d="M212.25,73.43c0.13,0.05,0.25,0.11,0.37,0.21c0.85,0.72,1.89,1.15,2.97,1.44v-8.5
				c0-2.67-0.73-5.17-1.98-7.33c-0.69,0.96-1.5,1.82-2.45,2.52c0.69,1.46,1.09,3.09,1.09,4.81V73.43z"/>
		</g>
		<path class="st16" d="M187.63,81.59c-0.8-1.03-1-2.48-0.52-3.69c0.48-1.21,1.64-2.12,2.93-2.31h22.84c4.34,0,7.33,4.67,5.19,8.44
			c-0.11,0.2-0.23,0.39-0.37,0.58c-1.85,2.63-5.6,3.89-8.52,2.54c-1.34-0.62-2.51-1.72-3.98-1.84c-1.99-0.15-3.6,1.55-5.49,2.21
			c-2.04,0.72-4.36,0.16-6.21-0.97C191.66,85.43,188.96,83.3,187.63,81.59z"/>
		<path class="st13" d="M213.79,83.24h-15.98c-1.28,0-2.32-1.04-2.32-2.32l0,0c0-1.28,1.04-2.32,2.32-2.32h15.98
			c1.28,0,2.32,1.04,2.32,2.32l0,0C216.11,82.2,215.07,83.24,213.79,83.24z"/>
		<path class="st32" d="M207.23,67.04c3.61-0.14,6.88-3.06,9.29-5.42c2.74-2.69,4.41-4.39,7.98-5.72"/>
		<ellipse class="st13" cx="186.89" cy="89.33" rx="7.24" ry="8.36"/>
		<path class="st16" d="M190.34,88.94c0,2.93-2.06,5.3-4.59,5.3c-2.54,0-4.59-2.37-4.59-5.3c0-2.93,2.06-5.3,4.59-5.3
			C188.29,83.64,190.34,86.01,190.34,88.94z"/>
		<path class="st33" d="M330.84,144.14h-8.92c-0.54,0-0.98-0.44-0.98-0.98l0,0c0-0.54,0.44-0.98,0.98-0.98h8.92
			c0.54,0,0.98,0.44,0.98,0.98l0,0C331.82,143.7,331.38,144.14,330.84,144.14z"/>
	</g>
</g>
</svg>
